<svg width="40" height="33" viewBox="0 0 40 33" fill="none" xmlns="http://www.w3.org/2000/svg">
    <path d="M6 2H34C35.0609 2 36.0783 2.42143 36.8284 3.17157C37.5786 3.92172 38 4.93913 38 6V12C36.9391 12 35.9217 12.4214 35.1716 13.1716C34.4214 13.9217 34 14.9391 34 16C34 17.0609 34.4214 18.0783 35.1716 18.8284C35.9217 19.5786 36.9391 20 38 20V26C38 27.0609 37.5786 28.0783 36.8284 28.8284C36.0783 29.5786 35.0609 30 34 30H6C4.93913 30 3.92172 29.5786 3.17157 28.8284C2.42143 28.0783 2 27.0609 2 26V20C3.06087 20 4.07828 19.5786 4.82843 18.8284C5.57857 18.0783 6 17.0609 6 16C6 14.9391 5.57857 13.9217 4.82843 13.1716C4.07828 12.4214 3.06087 12 2 12V6C2 4.93913 2.42143 3.92172 3.17157 3.17157C3.92172 2.42143 4.93913 2 6 2" stroke="white" stroke-width="4" stroke-linecap="round" stroke-linejoin="round" />
    <g filter="url(#filter0_d_6229_99691)">
        <path d="M20 10.0039V22.0039" stroke="white" stroke-width="4" stroke-linecap="round" stroke-linejoin="round" shape-rendering="crispEdges" />
    </g>
    <path d="M14 16.0039H26" stroke="white" stroke-width="4" stroke-linecap="round" stroke-linejoin="round" />
    <defs>
        <filter id="filter0_d_6229_99691" x="14" y="8.00391" width="12" height="24" filterUnits="userSpaceOnUse" color-interpolation-filters="sRGB">
            <feFlood flood-opacity="0" result="BackgroundImageFix" />
            <feColorMatrix in="SourceAlpha" type="matrix" values="0 0 0 0 0 0 0 0 0 0 0 0 0 0 0 0 0 0 127 0" result="hardAlpha" />
            <feOffset dy="4" />
            <feGaussianBlur stdDeviation="2" />
            <feComposite in2="hardAlpha" operator="out" />
            <feColorMatrix type="matrix" values="0 0 0 0 0 0 0 0 0 0 0 0 0 0 0 0 0 0 0.25 0" />
            <feBlend mode="normal" in2="BackgroundImageFix" result="effect1_dropShadow_6229_99691" />
            <feBlend mode="normal" in="SourceGraphic" in2="effect1_dropShadow_6229_99691" result="shape" />
        </filter>
    </defs>
</svg>
