<svg xmlns="http://www.w3.org/2000/svg" width="750" height="430" viewBox="0 0 363 338" fill="none">
<path opacity="0.1" fill-rule="evenodd" clip-rule="evenodd" d="M63.7369 -107.969C132.308 -54.3771 207.304 97.43 284 138.562C371.136 185.294 337.319 131.951 404.5 204.5C463.526 268.242 233.324 160.545 209.624 244.124C190.985 309.858 331.432 366.189 296.757 425.062C265.369 478.355 174.311 424.104 116.381 402.438C80.5424 389.035 20.9721 378.541 -15 365.5C-47.1257 353.853 -32.9633 342.056 -66.6114 336.096C-139.748 323.142 -255.39 343.456 -275.269 271.89C-293.803 205.169 -158.195 197.277 -121.481 138.562C-92.379 92.0204 -125.612 23.7073 -92.6401 -20.1787C-55.9912 -68.9595 15.6634 -145.541 63.7369 -107.969Z" fill="#35763B" fill-opacity="0.5"/>
</svg>