<svg xmlns="http://www.w3.org/2000/svg" width="748" height="615" viewBox="0 0 363 338" fill="none">
<path opacity="0.1" fill-rule="evenodd" clip-rule="evenodd" d="M272.005 -124.779C334.795 -83.1333 346.736 -8.02094 418.501 21.5785C506.245 57.7682 564.854 -42.0529 626.855 21.5785C681.523 77.6832 520.593 130.667 458.245 180.758C432.111 201.754 398.201 208.218 380 234.5C354.426 271.429 392.798 362.184 361 395.5C321.328 437.065 233.68 453.948 177.59 429.24C115.709 401.981 42.9055 407.786 -7.99699 367.5C-69.4825 318.838 -124.534 273.623 -106.871 204.106C-85.983 121.892 -107.706 83.5091 -70.4984 5.5C-30.3834 -78.6053 15.901 -44.5866 52.4131 -129.85C77.7897 -189.11 213.268 -163.736 272.005 -124.779Z" fill="#35763B"/>
</svg>