<svg  viewBox="0 0 685 566" fill="none" xmlns="http://www.w3.org/2000/svg">
    <path fill-rule="evenodd" clip-rule="evenodd" d="M340.737 10.0308C409.308 63.6229 315.851 219.398 392.547 260.53C479.684 307.261 607.013 116.315 674.194 188.864C733.22 252.606 510.324 278.545 486.624 362.124C467.985 427.858 608.432 484.189 573.757 543.062C542.369 596.355 451.311 542.104 393.381 520.438C357.542 507.035 346.346 457.598 310.374 444.557C278.248 432.91 244.037 460.056 210.389 454.096C137.252 441.142 21.61 461.456 1.73084 389.89C-16.8028 323.169 118.805 315.277 155.519 256.562C184.621 210.02 151.388 141.707 184.36 97.8213C221.009 49.0405 292.663 -27.5411 340.737 10.0308Z" fill="currentColor" />
</svg>
