<svg width="231" height="241" viewBox="0 0 231 241" fill="none" xmlns="http://www.w3.org/2000/svg">
    <path fill-rule="evenodd" clip-rule="evenodd" d="M98.5411 8.10394C124.849 1.73489 154.342 -5.98154 177.84 7.24919C201.901 20.7963 210.584 49.9672 218.958 75.9028C227.272 101.654 237.568 130.439 225.447 154.694C213.631 178.34 181.076 180.86 159.009 195.867C137.672 210.378 124.508 241.12 98.5411 241C72.5678 240.879 55.4941 214.556 38.4889 195.306C24.8973 179.921 17.4941 161.486 11.1715 142.099C4.88158 122.812 -4.05677 102.868 2.0328 83.5195C8.15824 64.0567 27.1205 52.5 43.366 39.8052C60.4542 26.4517 77.3267 13.2399 98.5411 8.10394Z" fill="white" fill-opacity="0.25" />
</svg>
