<svg width="240" height="265" viewBox="0 0 240 265" fill="none" xmlns="http://www.w3.org/2000/svg">
    <path fill-rule="evenodd" clip-rule="evenodd" d="M204.365 202.335C187.024 218.455 163.911 221.273 142.702 230.407C114.691 242.47 88.0293 268.591 60.346 264.356C31.3888 259.926 5.63891 237.534 0.852715 208.706C-3.82754 180.517 31.1444 154.636 37.2049 124.977C43.653 93.4214 13.9687 59.2338 36.5866 33.8311C58.7049 8.98944 96.0081 29.6085 126.916 24.2206C155.002 19.3246 186.041 -8.79886 208.788 3.81263C231.798 16.5695 222.538 53.8981 228.289 80.4233C232.729 100.9 242.889 119.366 238.591 141.27C234.176 163.768 222.128 185.823 204.365 202.335Z" fill="white" fill-opacity="0.1" />
</svg>
