<svg viewBox="0 0 537 512" fill="none" xmlns="http://www.w3.org/2000/svg">
    <path fill-rule="evenodd" clip-rule="evenodd" d="M273.349 34.3222C318.516 69.8596 273.589 169.827 325.212 195.085C388.329 225.967 484.006 104.915 528.605 159.214C567.929 207.09 452.167 252.303 407.318 295.047C388.519 312.963 356.076 313.696 342.984 336.123C324.588 367.636 344.82 412.86 321.946 441.29C293.409 476.759 245.781 528.169 205.434 507.085C160.92 483.823 209.099 397.564 172.483 363.186C128.255 321.661 -11.8943 374.292 0.810867 314.97C15.8364 244.814 171.757 308.18 198.521 241.612C227.377 169.842 89.125 102.753 115.389 29.9945C133.644 -20.5735 231.098 1.07833 273.349 34.3222Z" fill="currentColor" />
</svg>
