<svg width="12" height="12" viewBox="0 0 12 12" fill="none" xmlns="http://www.w3.org/2000/svg">
<path d="M4.5 5.5C5.60457 5.5 6.5 4.60457 6.5 3.5C6.5 2.39543 5.60457 1.5 4.5 1.5C3.39543 1.5 2.5 2.39543 2.5 3.5C2.5 4.60457 3.39543 5.5 4.5 5.5Z" stroke="white" stroke-linecap="round" stroke-linejoin="round"/>
<path d="M10.5 10.4975V9.4975C10.4975 9.05608 10.349 8.6279 10.0776 8.2797C9.80631 7.9315 9.42741 7.68285 9 7.5725M1.5 10.4975V9.4975C1.5 8.96707 1.71071 8.45836 2.08579 8.08329C2.46086 7.70821 2.96957 7.4975 3.5 7.4975H5.5C6.03043 7.4975 6.53914 7.70821 6.91421 8.08329C7.28929 8.45836 7.5 8.96707 7.5 9.4975V10.4975H1.5ZM8 1.5625C8.43021 1.67265 8.81152 1.92285 9.08382 2.27366C9.35612 2.62446 9.50392 3.05591 9.50392 3.5C9.50392 3.94409 9.35612 4.37554 9.08382 4.72634C8.81152 5.07715 8.43021 5.32735 8 5.4375V1.5625Z" stroke="white" stroke-linecap="round" stroke-linejoin="round"/>
</svg>
