<svg width="24" height="29" viewBox="0 0 24 29" fill="none" xmlns="http://www.w3.org/2000/svg">
<mask id="mask0_21588_39752" style="mask-type:alpha" maskUnits="userSpaceOnUse" x="0" y="0" width="24" height="29">
<path d="M22.0588 28.0905H1.94118C0.869095 28.0905 0 27.2214 0 26.1494V2.85524C0 1.78316 0.869095 0.914062 1.94118 0.914062H15L24 9.91406V26.1494C24 27.2214 23.1309 28.0905 22.0588 28.0905Z" fill="url(#paint0_linear_21588_39752)"/>
</mask>
<g mask="url(#mask0_21588_39752)">
<path d="M22.0588 28.0915H1.94118C0.869095 28.0915 0 27.2224 0 26.1503V2.85622C0 1.78413 0.869095 0.915039 1.94118 0.915039H15L24 9.91504V26.1503C24 27.2224 23.1309 28.0915 22.0588 28.0915Z" fill="url(#paint1_linear_21588_39752)"/>
<mask id="path-3-outside-1_21588_39752" maskUnits="userSpaceOnUse" x="4.49902" y="14.709" width="15" height="6" fill="black">
<rect fill="white" x="4.49902" y="14.709" width="15" height="6"/>
<path d="M5.47196 19.7432C5.38517 19.7432 5.31209 19.7136 5.25271 19.6542C5.19333 19.5948 5.16364 19.5217 5.16364 19.4349V15.2417C5.16364 15.1549 5.19333 15.0818 5.25271 15.0224C5.31209 14.9585 5.38517 14.9265 5.47196 14.9265H7.03415C7.46809 14.9265 7.82209 14.9996 8.09616 15.1458C8.37022 15.2919 8.56664 15.4792 8.6854 15.7076C8.80416 15.936 8.86355 16.1827 8.86355 16.4476C8.86355 16.7125 8.80416 16.9592 8.6854 17.1876C8.56664 17.416 8.37022 17.6032 8.09616 17.7494C7.82209 17.8956 7.46809 17.9687 7.03415 17.9687H5.78714V19.4349C5.78714 19.5217 5.75517 19.5948 5.69122 19.6542C5.63183 19.7136 5.55875 19.7432 5.47196 19.7432ZM6.97248 17.3794C7.4384 17.3794 7.76499 17.2903 7.95227 17.1122C8.14412 16.9341 8.24004 16.7125 8.24004 16.4476C8.24004 16.1827 8.14412 15.9611 7.95227 15.783C7.76499 15.6048 7.4384 15.5158 6.97248 15.5158H5.78714V17.3794H6.97248ZM10.5551 19.709C10.4683 19.709 10.3952 19.6793 10.3358 19.6199C10.2764 19.5605 10.2467 19.4874 10.2467 19.4007V15.2417C10.2467 15.1549 10.2764 15.0818 10.3358 15.0224C10.3952 14.9585 10.4683 14.9265 10.5551 14.9265H11.9322C12.453 14.9265 12.8938 15.043 13.2546 15.2759C13.62 15.5043 13.8941 15.8012 14.0768 16.1667C14.2595 16.5321 14.3509 16.9158 14.3509 17.3177C14.3509 17.7197 14.2595 18.1034 14.0768 18.4688C13.8941 18.8343 13.62 19.1334 13.2546 19.3664C12.8938 19.5948 12.453 19.709 11.9322 19.709H10.5551ZM11.8569 19.1266C12.2314 19.1266 12.5603 19.0512 12.8435 18.9005C13.1267 18.7452 13.346 18.5328 13.5013 18.2633C13.6566 17.9892 13.7342 17.674 13.7342 17.3177C13.7342 16.9615 13.6566 16.6486 13.5013 16.3791C13.346 16.105 13.1267 15.8926 12.8435 15.7419C12.5603 15.5866 12.2314 15.5089 11.8569 15.5089H10.8702V19.1266H11.8569ZM16.1801 19.7432C16.0933 19.7432 16.0203 19.7136 15.9609 19.6542C15.9015 19.5948 15.8718 19.5217 15.8718 19.4349V15.2417C15.8718 15.1549 15.9015 15.0818 15.9609 15.0224C16.0203 14.9585 16.0933 14.9265 16.1801 14.9265H18.8454C18.9276 14.9265 18.9962 14.9562 19.051 15.0156C19.1104 15.0704 19.1401 15.1389 19.1401 15.2211C19.1401 15.3034 19.1104 15.3719 19.051 15.4267C18.9962 15.4815 18.9276 15.5089 18.8454 15.5089H16.4953V17.0231H18.6056C18.6878 17.0231 18.7564 17.0528 18.8112 17.1122C18.8706 17.167 18.9002 17.2355 18.9002 17.3177C18.9002 17.4 18.8706 17.4685 18.8112 17.5233C18.7564 17.5781 18.6878 17.6055 18.6056 17.6055H16.4953V19.4349C16.4953 19.5217 16.4633 19.5948 16.3994 19.6542C16.34 19.7136 16.2669 19.7432 16.1801 19.7432Z"/>
</mask>
<path d="M5.47196 19.7432C5.38517 19.7432 5.31209 19.7136 5.25271 19.6542C5.19333 19.5948 5.16364 19.5217 5.16364 19.4349V15.2417C5.16364 15.1549 5.19333 15.0818 5.25271 15.0224C5.31209 14.9585 5.38517 14.9265 5.47196 14.9265H7.03415C7.46809 14.9265 7.82209 14.9996 8.09616 15.1458C8.37022 15.2919 8.56664 15.4792 8.6854 15.7076C8.80416 15.936 8.86355 16.1827 8.86355 16.4476C8.86355 16.7125 8.80416 16.9592 8.6854 17.1876C8.56664 17.416 8.37022 17.6032 8.09616 17.7494C7.82209 17.8956 7.46809 17.9687 7.03415 17.9687H5.78714V19.4349C5.78714 19.5217 5.75517 19.5948 5.69122 19.6542C5.63183 19.7136 5.55875 19.7432 5.47196 19.7432ZM6.97248 17.3794C7.4384 17.3794 7.76499 17.2903 7.95227 17.1122C8.14412 16.9341 8.24004 16.7125 8.24004 16.4476C8.24004 16.1827 8.14412 15.9611 7.95227 15.783C7.76499 15.6048 7.4384 15.5158 6.97248 15.5158H5.78714V17.3794H6.97248ZM10.5551 19.709C10.4683 19.709 10.3952 19.6793 10.3358 19.6199C10.2764 19.5605 10.2467 19.4874 10.2467 19.4007V15.2417C10.2467 15.1549 10.2764 15.0818 10.3358 15.0224C10.3952 14.9585 10.4683 14.9265 10.5551 14.9265H11.9322C12.453 14.9265 12.8938 15.043 13.2546 15.2759C13.62 15.5043 13.8941 15.8012 14.0768 16.1667C14.2595 16.5321 14.3509 16.9158 14.3509 17.3177C14.3509 17.7197 14.2595 18.1034 14.0768 18.4688C13.8941 18.8343 13.62 19.1334 13.2546 19.3664C12.8938 19.5948 12.453 19.709 11.9322 19.709H10.5551ZM11.8569 19.1266C12.2314 19.1266 12.5603 19.0512 12.8435 18.9005C13.1267 18.7452 13.346 18.5328 13.5013 18.2633C13.6566 17.9892 13.7342 17.674 13.7342 17.3177C13.7342 16.9615 13.6566 16.6486 13.5013 16.3791C13.346 16.105 13.1267 15.8926 12.8435 15.7419C12.5603 15.5866 12.2314 15.5089 11.8569 15.5089H10.8702V19.1266H11.8569ZM16.1801 19.7432C16.0933 19.7432 16.0203 19.7136 15.9609 19.6542C15.9015 19.5948 15.8718 19.5217 15.8718 19.4349V15.2417C15.8718 15.1549 15.9015 15.0818 15.9609 15.0224C16.0203 14.9585 16.0933 14.9265 16.1801 14.9265H18.8454C18.9276 14.9265 18.9962 14.9562 19.051 15.0156C19.1104 15.0704 19.1401 15.1389 19.1401 15.2211C19.1401 15.3034 19.1104 15.3719 19.051 15.4267C18.9962 15.4815 18.9276 15.5089 18.8454 15.5089H16.4953V17.0231H18.6056C18.6878 17.0231 18.7564 17.0528 18.8112 17.1122C18.8706 17.167 18.9002 17.2355 18.9002 17.3177C18.9002 17.4 18.8706 17.4685 18.8112 17.5233C18.7564 17.5781 18.6878 17.6055 18.6056 17.6055H16.4953V19.4349C16.4953 19.5217 16.4633 19.5948 16.3994 19.6542C16.34 19.7136 16.2669 19.7432 16.1801 19.7432Z" fill="white"/>
<path d="M5.25271 19.6542L5.37536 19.5315H5.37536L5.25271 19.6542ZM5.25271 15.0224L5.37545 15.1452L5.37982 15.1405L5.25271 15.0224ZM8.6854 15.7076L8.5315 15.7876V15.7876L8.6854 15.7076ZM8.6854 17.1876L8.5315 17.1075L8.5315 17.1075L8.6854 17.1876ZM5.78714 17.9687V17.7952H5.61368V17.9687H5.78714ZM5.69122 19.6542L5.5731 19.527L5.56856 19.5315L5.69122 19.6542ZM7.95227 17.1122L7.83423 16.9851L7.83272 16.9865L7.95227 17.1122ZM7.95227 15.783L7.83271 15.9087L7.83424 15.9101L7.95227 15.783ZM5.78714 15.5158V15.3423H5.61368V15.5158H5.78714ZM5.78714 17.3794H5.61368V17.5529H5.78714V17.3794ZM5.47196 19.5698C5.42946 19.5698 5.40102 19.5572 5.37536 19.5315L5.13005 19.7768C5.22316 19.8699 5.34089 19.9167 5.47196 19.9167V19.5698ZM5.37536 19.5315C5.34971 19.5059 5.3371 19.4774 5.3371 19.4349H4.99018C4.99018 19.566 5.03695 19.6837 5.13005 19.7768L5.37536 19.5315ZM5.3371 19.4349V15.2417H4.99018V19.4349H5.3371ZM5.3371 15.2417C5.3371 15.1992 5.34971 15.1707 5.37536 15.1451L5.13005 14.8998C5.03695 14.9929 4.99018 15.1106 4.99018 15.2417H5.3371ZM5.37982 15.1405C5.40659 15.1116 5.43371 15.1 5.47196 15.1V14.753C5.33664 14.753 5.21759 14.8053 5.1256 14.9044L5.37982 15.1405ZM5.47196 15.1H7.03415V14.753H5.47196V15.1ZM7.03415 15.1C7.45029 15.1 7.77357 15.1703 8.01453 15.2988L8.17779 14.9927C7.87061 14.8289 7.48588 14.753 7.03415 14.753V15.1ZM8.01453 15.2988C8.26418 15.432 8.43199 15.5963 8.5315 15.7876L8.8393 15.6276C8.70128 15.3622 8.47627 15.1519 8.17779 14.9927L8.01453 15.2988ZM8.5315 15.7876C8.63703 15.9906 8.69008 16.2097 8.69008 16.4476H9.03701C9.03701 16.1556 8.9713 15.8814 8.8393 15.6276L8.5315 15.7876ZM8.69008 16.4476C8.69008 16.6855 8.63703 16.9046 8.5315 17.1075L8.8393 17.2676C8.9713 17.0137 9.03701 16.7395 9.03701 16.4476H8.69008ZM8.5315 17.1075C8.43199 17.2989 8.26417 17.4632 8.01453 17.5963L8.17779 17.9025C8.47627 17.7433 8.70128 17.533 8.8393 17.2676L8.5315 17.1075ZM8.01453 17.5963C7.77357 17.7249 7.45029 17.7952 7.03415 17.7952V18.1421C7.48588 18.1421 7.87061 18.0663 8.17779 17.9025L8.01453 17.5963ZM7.03415 17.7952H5.78714V18.1421H7.03415V17.7952ZM5.61368 17.9687V19.4349H5.9606V17.9687H5.61368ZM5.61368 19.4349C5.61368 19.4732 5.60201 19.5003 5.57318 19.5271L5.80925 19.7813C5.90832 19.6893 5.9606 19.5702 5.9606 19.4349H5.61368ZM5.56856 19.5315C5.54291 19.5572 5.51447 19.5698 5.47196 19.5698V19.9167C5.60303 19.9167 5.72076 19.8699 5.81387 19.7768L5.56856 19.5315ZM6.97248 17.5529C7.45054 17.5529 7.83471 17.4634 8.07182 17.2379L7.83272 16.9865C7.69528 17.1173 7.42625 17.206 6.97248 17.206V17.5529ZM8.0703 17.2393C8.29797 17.0279 8.4135 16.7601 8.4135 16.4476H8.06658C8.06658 16.6649 7.99026 16.8402 7.83424 16.9851L8.0703 17.2393ZM8.4135 16.4476C8.4135 16.1351 8.29797 15.8673 8.0703 15.6559L7.83424 15.9101C7.99026 16.055 8.06658 16.2302 8.06658 16.4476H8.4135ZM8.07182 15.6573C7.83471 15.4317 7.45054 15.3423 6.97248 15.3423V15.6892C7.42625 15.6892 7.69528 15.7779 7.83272 15.9087L8.07182 15.6573ZM6.97248 15.3423H5.78714V15.6892H6.97248V15.3423ZM5.61368 15.5158V17.3794H5.9606V15.5158H5.61368ZM5.78714 17.5529H6.97248V17.206H5.78714V17.5529ZM10.3358 19.6199L10.4585 19.4973L10.3358 19.6199ZM10.3358 15.0224L10.4585 15.1452L10.4629 15.1405L10.3358 15.0224ZM13.2546 15.2759L13.1605 15.4217L13.1627 15.423L13.2546 15.2759ZM14.0768 16.1667L13.9217 16.2442L14.0768 16.1667ZM14.0768 18.4688L13.9217 18.3913L14.0768 18.4688ZM13.2546 19.3664L13.3474 19.513L13.3479 19.5127L13.2546 19.3664ZM12.8435 18.9005L12.925 19.0536L12.9269 19.0526L12.8435 18.9005ZM13.5013 18.2633L13.6516 18.3499L13.6522 18.3488L13.5013 18.2633ZM13.5013 16.3791L13.3504 16.4646L13.351 16.4657L13.5013 16.3791ZM12.8435 15.7419L12.7601 15.894L12.762 15.895L12.8435 15.7419ZM10.8702 15.5089V15.3354H10.6968V15.5089H10.8702ZM10.8702 19.1266H10.6968V19.3001H10.8702V19.1266ZM10.5551 19.5355C10.5126 19.5355 10.4841 19.5229 10.4585 19.4973L10.2131 19.7426C10.3063 19.8357 10.424 19.8824 10.5551 19.8824V19.5355ZM10.4585 19.4973C10.4328 19.4716 10.4202 19.4432 10.4202 19.4007H10.0733C10.0733 19.5317 10.12 19.6495 10.2131 19.7426L10.4585 19.4973ZM10.4202 19.4007V15.2417H10.0733V19.4007H10.4202ZM10.4202 15.2417C10.4202 15.1992 10.4328 15.1707 10.4585 15.1451L10.2131 14.8998C10.12 14.9929 10.0733 15.1106 10.0733 15.2417H10.4202ZM10.4629 15.1405C10.4897 15.1116 10.5168 15.1 10.5551 15.1V14.753C10.4197 14.753 10.3007 14.8053 10.2087 14.9044L10.4629 15.1405ZM10.5551 15.1H11.9322V14.753H10.5551V15.1ZM11.9322 15.1C12.4267 15.1 12.8332 15.2103 13.1605 15.4217L13.3487 15.1302C12.9543 14.8756 12.4792 14.753 11.9322 14.753V15.1ZM13.1627 15.423C13.5026 15.6355 13.754 15.909 13.9217 16.2442L14.232 16.0891C14.0342 15.6935 13.7375 15.3732 13.3466 15.1289L13.1627 15.423ZM13.9217 16.2442C14.0925 16.586 14.1774 16.9432 14.1774 17.3177H14.5243C14.5243 16.8884 14.4265 16.4782 14.232 16.0891L13.9217 16.2442ZM14.1774 17.3177C14.1774 17.6923 14.0925 18.0495 13.9217 18.3913L14.232 18.5464C14.4265 18.1573 14.5243 17.7471 14.5243 17.3177H14.1774ZM13.9217 18.3913C13.7539 18.7269 13.502 19.003 13.1614 19.2201L13.3479 19.5127C13.7381 19.2639 14.0344 18.9416 14.232 18.5464L13.9217 18.3913ZM13.1619 19.2198C12.8343 19.4271 12.4274 19.5355 11.9322 19.5355V19.8824C12.4786 19.8824 12.9532 19.7624 13.3474 19.513L13.1619 19.2198ZM11.9322 19.5355H10.5551V19.8824H11.9322V19.5355ZM11.8569 19.3001C12.2551 19.3001 12.6128 19.2198 12.925 19.0536L12.762 18.7474C12.5078 18.8827 12.2078 18.9531 11.8569 18.9531V19.3001ZM12.9269 19.0526C13.2369 18.8826 13.4798 18.648 13.6516 18.3499L13.351 18.1767C13.2122 18.4175 13.0166 18.6078 12.7601 18.7484L12.9269 19.0526ZM13.6522 18.3488C13.8241 18.0454 13.9077 17.7 13.9077 17.3177H13.5608C13.5608 17.6481 13.489 17.933 13.3504 18.1778L13.6522 18.3488ZM13.9077 17.3177C13.9077 16.9355 13.8241 16.5919 13.6516 16.2925L13.351 16.4657C13.489 16.7052 13.5608 16.9874 13.5608 17.3177H13.9077ZM13.6522 16.2935C13.4803 15.9903 13.2367 15.7547 12.925 15.5887L12.762 15.895C13.0167 16.0305 13.2116 16.2197 13.3504 16.4646L13.6522 16.2935ZM12.9269 15.5898C12.6143 15.4184 12.2559 15.3354 11.8569 15.3354V15.6824C12.207 15.6824 12.5063 15.7548 12.7601 15.894L12.9269 15.5898ZM11.8569 15.3354H10.8702V15.6824H11.8569V15.3354ZM10.6968 15.5089V19.1266H11.0437V15.5089H10.6968ZM10.8702 19.3001H11.8569V18.9531H10.8702V19.3001ZM15.9609 19.6542L16.0835 19.5315L15.9609 19.6542ZM15.9609 15.0224L16.0836 15.1452L16.088 15.1405L15.9609 15.0224ZM19.051 15.0156L18.9231 15.1336L18.9333 15.143L19.051 15.0156ZM19.051 15.4267L18.9332 15.2991L18.9283 15.304L19.051 15.4267ZM16.4953 15.5089V15.3354H16.3218V15.5089H16.4953ZM16.4953 17.0231H16.3218V17.1966H16.4953V17.0231ZM18.8112 17.1122L18.6833 17.2302L18.6935 17.2397L18.8112 17.1122ZM18.8112 17.5233L18.6934 17.3957L18.6885 17.4006L18.8112 17.5233ZM16.4953 17.6055V17.4321H16.3218V17.6055H16.4953ZM16.3994 19.6542L16.2813 19.527L16.2767 19.5315L16.3994 19.6542ZM16.1801 19.5698C16.1376 19.5698 16.1092 19.5572 16.0835 19.5315L15.8382 19.7768C15.9313 19.8699 16.0491 19.9167 16.1801 19.9167V19.5698ZM16.0835 19.5315C16.0579 19.5059 16.0453 19.4774 16.0453 19.4349H15.6983C15.6983 19.566 15.7451 19.6837 15.8382 19.7768L16.0835 19.5315ZM16.0453 19.4349V15.2417H15.6983V19.4349H16.0453ZM16.0453 15.2417C16.0453 15.1992 16.0579 15.1707 16.0835 15.1451L15.8382 14.8998C15.7451 14.9929 15.6983 15.1106 15.6983 15.2417H16.0453ZM16.088 15.1405C16.1147 15.1116 16.1419 15.1 16.1801 15.1V14.753C16.0448 14.753 15.9258 14.8053 15.8338 14.9044L16.088 15.1405ZM16.1801 15.1H18.8454V14.753H16.1801V15.1ZM18.8454 15.1C18.8802 15.1 18.9022 15.1101 18.9235 15.1332L19.1784 14.8979C19.0901 14.8023 18.9751 14.753 18.8454 14.753V15.1ZM18.9333 15.143C18.9564 15.1644 18.9666 15.1864 18.9666 15.2211H19.3135C19.3135 15.0915 19.2643 14.9764 19.1686 14.8881L18.9333 15.143ZM18.9666 15.2211C18.9666 15.2559 18.9564 15.2779 18.9333 15.2992L19.1686 15.5541C19.2643 15.4658 19.3135 15.3508 19.3135 15.2211H18.9666ZM18.9283 15.304C18.9082 15.3242 18.8847 15.3354 18.8454 15.3354V15.6824C18.9706 15.6824 19.0842 15.6388 19.1736 15.5493L18.9283 15.304ZM18.8454 15.3354H16.4953V15.6824H18.8454V15.3354ZM16.3218 15.5089V17.0231H16.6688V15.5089H16.3218ZM16.4953 17.1966H18.6056V16.8497H16.4953V17.1966ZM18.6056 17.1966C18.6404 17.1966 18.6624 17.2067 18.6837 17.2299L18.9386 16.9945C18.8503 16.8989 18.7353 16.8497 18.6056 16.8497V17.1966ZM18.6935 17.2397C18.7166 17.261 18.7268 17.283 18.7268 17.3177H19.0737C19.0737 17.1881 19.0245 17.073 18.9288 16.9847L18.6935 17.2397ZM18.7268 17.3177C18.7268 17.3525 18.7166 17.3745 18.6935 17.3958L18.9288 17.6508C19.0245 17.5625 19.0737 17.4474 19.0737 17.3177H18.7268ZM18.6885 17.4006C18.6684 17.4208 18.6449 17.4321 18.6056 17.4321V17.779C18.7307 17.779 18.8444 17.7354 18.9338 17.646L18.6885 17.4006ZM18.6056 17.4321H16.4953V17.779H18.6056V17.4321ZM16.3218 17.6055V19.4349H16.6688V17.6055H16.3218ZM16.3218 19.4349C16.3218 19.4732 16.3102 19.5003 16.2813 19.5271L16.5174 19.7813C16.6165 19.6893 16.6688 19.5702 16.6688 19.4349H16.3218ZM16.2767 19.5315C16.2511 19.5572 16.2226 19.5698 16.1801 19.5698V19.9167C16.3112 19.9167 16.4289 19.8699 16.522 19.7768L16.2767 19.5315Z" fill="white" mask="url(#path-3-outside-1_21588_39752)"/>
<path d="M24 9.91504H16.9081C15.8543 9.91504 15 9.06077 15 8.00698V0.915039L24 9.91504Z" fill="url(#paint2_linear_21588_39752)"/>
</g>
<defs>
<linearGradient id="paint0_linear_21588_39752" x1="12" y1="0.914062" x2="12" y2="28.0905" gradientUnits="userSpaceOnUse">
<stop stop-color="#FF7979"/>
<stop offset="1" stop-color="#E85555"/>
</linearGradient>
<linearGradient id="paint1_linear_21588_39752" x1="12" y1="0.915039" x2="12" y2="28.0915" gradientUnits="userSpaceOnUse">
<stop stop-color="#FF7981"/>
<stop offset="1" stop-color="#E85567"/>
</linearGradient>
<linearGradient id="paint2_linear_21588_39752" x1="19.5" y1="0.915039" x2="19.5" y2="9.91504" gradientUnits="userSpaceOnUse">
<stop stop-color="#D03954"/>
<stop offset="1" stop-color="#C02A3C"/>
</linearGradient>
</defs>
</svg>
