<svg width="179" height="173" viewBox="0 0 238 229" fill="none" xmlns="http://www.w3.org/2000/svg">
<mask id="mask0_19786_41256" style="mask-type:alpha" maskUnits="userSpaceOnUse" x="0" y="0" width="422" height="561">
<rect x="0.865106" y="0.259637" width="420.093" height="560.297" fill="#C4C4C4" stroke="black" stroke-width="0.519274"/>
</mask>
<g mask="url(#mask0_19786_41256)">
<path d="M119 229C184.388 229 237.395 199.88 237.395 163.958C237.395 128.037 184.388 98.917 119 98.917C53.6125 98.917 0.605469 128.037 0.605469 163.958C0.605469 199.88 53.6125 229 119 229Z" fill="#F5F5F5"/>
<path d="M101.5 154.859C114.889 154.859 125.742 148.895 125.742 141.539C125.742 134.182 114.889 128.219 101.5 128.219C88.1114 128.219 77.2578 134.182 77.2578 141.539C77.2578 148.895 88.1114 154.859 101.5 154.859Z" fill="#E0E0E0"/>
<path d="M195.032 179.47C208.066 186.631 208.066 198.224 195.032 205.4C181.998 212.576 160.863 212.566 147.834 205.4C134.805 198.234 134.8 186.646 147.834 179.465C160.868 172.285 181.998 172.299 195.032 179.47Z" fill="#E0E0E0"/>
<path d="M73.3027 132.393L141.766 169.995C142.04 170.144 142.267 170.36 142.425 170.62C142.583 170.88 142.666 171.175 142.666 171.475C142.666 171.776 142.583 172.071 142.425 172.331C142.267 172.591 142.04 172.806 141.766 172.956L101.373 195.164C100.535 195.625 99.5855 195.867 98.6185 195.867C97.6515 195.867 96.7016 195.625 95.8644 195.164L27.4116 157.538C27.1366 157.39 26.9079 157.174 26.7488 156.914C26.5897 156.654 26.5059 156.359 26.5059 156.058C26.5059 155.757 26.5897 155.461 26.7488 155.201C26.9079 154.941 27.1366 154.726 27.4116 154.577L67.8101 132.369C68.6473 131.914 69.5957 131.676 70.5598 131.681C71.524 131.685 72.47 131.931 73.3027 132.393Z" fill="#E0E0E0"/>
<path d="M46.9178 160.37L94.3649 187.213C94.5348 187.308 94.6758 187.443 94.7737 187.606C94.8716 187.769 94.9231 187.953 94.9231 188.141C94.9231 188.328 94.8716 188.513 94.7737 188.675C94.6758 188.838 94.5348 188.974 94.3649 189.069L68.9505 203.02C68.4244 203.309 67.8279 203.461 67.2208 203.461C66.6136 203.461 66.0171 203.309 65.491 203.02L18.0751 176.178C17.9038 176.084 17.7616 175.949 17.6627 175.786C17.5638 175.623 17.5117 175.438 17.5117 175.25C17.5117 175.062 17.5638 174.877 17.6627 174.714C17.7616 174.551 17.9038 174.416 18.0751 174.322L43.4895 160.37C44.0118 160.087 44.6026 159.938 45.2036 159.938C45.8047 159.938 46.3955 160.087 46.9178 160.37Z" fill="#E0E0E0"/>
<path d="M134.1 105.545L215.529 150.258C216.107 150.576 216.763 150.743 217.43 150.743C218.098 150.743 218.753 150.576 219.331 150.258L224.445 147.45C224.646 147.341 224.812 147.183 224.928 146.993C225.044 146.803 225.105 146.587 225.105 146.367C225.105 146.147 225.044 145.931 224.928 145.741C224.812 145.551 224.646 145.393 224.445 145.284L143.073 100.6C142.48 100.273 141.807 100.101 141.122 100.101C140.438 100.101 139.765 100.273 139.172 100.6L134.11 103.379C133.909 103.487 133.742 103.644 133.625 103.834C133.508 104.024 133.446 104.239 133.445 104.459C133.444 104.679 133.504 104.895 133.619 105.086C133.734 105.277 133.9 105.435 134.1 105.545Z" fill="#E0E0E0"/>
<path d="M140.107 103.275L219.234 146.745C219.517 146.901 219.838 146.983 220.165 146.983C220.492 146.984 220.813 146.903 221.096 146.747C221.38 146.592 221.615 146.369 221.779 146.1C221.943 145.831 222.029 145.526 222.03 145.215V46.0462C222.028 45.1999 221.793 44.3687 221.348 43.636C220.903 42.9033 220.264 42.2946 219.494 41.871L143.888 0.321341C143.505 0.110804 143.07 -2.41725e-05 142.628 3.95461e-09C142.185 2.41804e-05 141.751 0.110899 141.368 0.321479C140.984 0.532058 140.666 0.83492 140.445 1.19962C140.224 1.56432 140.107 1.978 140.107 2.39907V103.275Z" fill="#35763B"/>
<path opacity="0.5" d="M140.107 103.275L219.234 146.745C219.517 146.901 219.838 146.983 220.165 146.983C220.492 146.984 220.813 146.903 221.096 146.747C221.38 146.592 221.615 146.369 221.779 146.1C221.943 145.831 222.029 145.526 222.03 145.215V46.0462C222.028 45.1999 221.793 44.3687 221.348 43.636C220.903 42.9033 220.264 42.2946 219.494 41.871L143.888 0.321341C143.505 0.110804 143.07 -2.41725e-05 142.628 3.95461e-09C142.185 2.41804e-05 141.751 0.110899 141.368 0.321479C140.984 0.532058 140.666 0.83492 140.445 1.19962C140.224 1.56432 140.107 1.978 140.107 2.39907V103.275Z" fill="white"/>
<path d="M142.348 107.831L214.903 147.688V46.9155L142.348 7.05859V107.831Z" fill="#35763B"/>
<path opacity="0.8" d="M142.348 107.831L214.903 147.688V46.9155L142.348 7.05859V107.831Z" fill="white"/>
<path d="M135.264 99.7816L207.819 139.639L214.904 46.9155L142.349 7.05859L135.264 99.7816Z" fill="#35763B"/>
<path opacity="0.9" d="M135.264 99.7816L207.819 139.639L214.904 46.9155L142.349 7.05859L135.264 99.7816Z" fill="white"/>
<path d="M142.348 7.05808L214.903 46.915L217.652 45.4048L145.097 5.54297L142.348 7.05808Z" fill="#35763B"/>
<path opacity="0.7" d="M142.348 7.05808L214.903 46.915L217.652 45.4048L145.097 5.54297L142.348 7.05808Z" fill="white"/>
<path d="M217.653 45.4053V145.793L214.904 147.688V46.9155L217.653 45.4053Z" fill="#35763B"/>
<path d="M217.653 45.4053V145.793L214.904 147.688V46.9155L217.653 45.4053Z" fill="#35763B"/>
<path opacity="0.7" d="M217.653 45.4053V145.793L214.904 147.688V46.9155L217.653 45.4053Z" fill="white"/>
<path d="M194.934 59.9924C194.87 60 194.805 60 194.742 59.9924C194.632 59.9641 194.531 59.9118 194.447 59.8399C194.362 59.7679 194.296 59.6782 194.254 59.5779L192.097 54.4205C192.027 54.2497 192.031 54.0595 192.107 53.8913C192.184 53.7231 192.327 53.5905 192.506 53.5223C192.595 53.488 192.69 53.4706 192.785 53.4714C192.881 53.4722 192.975 53.491 193.063 53.5269C193.151 53.5627 193.23 53.6148 193.297 53.6801C193.363 53.7454 193.415 53.8226 193.45 53.9073L195.245 58.196L205.571 50.3934C205.646 50.3343 205.733 50.2901 205.826 50.2635C205.92 50.2369 206.017 50.2284 206.114 50.2385C206.211 50.2486 206.305 50.2772 206.39 50.3225C206.475 50.3677 206.549 50.4288 206.609 50.502C206.67 50.5738 206.715 50.6564 206.742 50.745C206.769 50.8336 206.778 50.9263 206.767 51.0181C206.756 51.1098 206.727 51.1986 206.68 51.2794C206.633 51.3602 206.57 51.4314 206.495 51.489L195.4 59.8789C195.263 59.9666 195.098 60.0066 194.934 59.9924Z" fill="#35763B"/>
<path d="M182.875 48.8744C182.748 48.8742 182.623 48.8437 182.512 48.7856L151.963 32.0058C151.795 31.9135 151.674 31.7618 151.624 31.5841C151.574 31.4064 151.601 31.2173 151.698 31.0582C151.795 30.8992 151.954 30.7833 152.141 30.7361C152.328 30.6889 152.527 30.7142 152.694 30.8065L183.243 47.5863C183.384 47.6617 183.494 47.7796 183.557 47.9214C183.619 48.0632 183.63 48.2208 183.588 48.3692C183.546 48.5176 183.452 48.6484 183.323 48.7408C183.194 48.8332 183.036 48.8819 182.875 48.8793V48.8744Z" fill="#35763B"/>
<path d="M182.177 54.8413C182.05 54.8416 181.924 54.8092 181.814 54.7475L151.265 37.9677C151.098 37.8754 150.976 37.7237 150.927 37.546C150.877 37.3683 150.904 37.1792 151.001 37.0201C151.098 36.8611 151.257 36.7452 151.444 36.698C151.631 36.6508 151.829 36.6762 151.997 36.7684L182.546 53.5482C182.686 53.6236 182.797 53.7415 182.859 53.8833C182.922 54.0252 182.933 54.1827 182.891 54.3311C182.848 54.4795 182.755 54.6103 182.626 54.7027C182.497 54.7951 182.339 54.8438 182.177 54.8413Z" fill="#35763B"/>
<path d="M199.807 67.5488C199.476 67.5486 199.151 67.467 198.863 67.3119L189.418 62.3421C188.737 61.987 188.179 61.4517 187.81 60.8009C187.442 60.1501 187.28 59.4118 187.344 58.6752L188.241 48.6518C188.271 48.3419 188.382 48.0441 188.564 47.7857C188.747 47.5273 188.994 47.3165 189.284 47.1727C189.574 47.0288 189.897 46.9565 190.224 46.9622C190.551 46.968 190.871 47.0518 191.156 47.2058L201.088 52.6641C201.559 52.9258 201.944 53.3074 202.2 53.766C202.456 54.2246 202.572 54.7421 202.535 55.2601L201.726 65.8264C201.702 66.1342 201.596 66.4312 201.42 66.69C201.243 66.9487 201 67.1609 200.715 67.3069C200.437 67.456 200.126 67.539 199.807 67.5488ZM190.207 48.3458C190.084 48.3453 189.965 48.3885 189.874 48.4671C189.782 48.5456 189.725 48.6537 189.714 48.7702L188.817 58.7937C188.774 59.2614 188.875 59.7308 189.107 60.1451C189.339 60.5594 189.692 60.9008 190.124 61.128L199.568 66.1027C199.641 66.1383 199.722 66.1568 199.804 66.1568C199.886 66.1568 199.967 66.1383 200.04 66.1027C200.112 66.0656 200.174 66.0118 200.218 65.9462C200.262 65.8806 200.289 65.8055 200.294 65.7277L201.104 55.1614C201.122 54.9034 201.064 54.6458 200.936 54.4174C200.809 54.189 200.617 53.9989 200.383 53.8683L190.445 48.41C190.374 48.3673 190.291 48.345 190.207 48.3458Z" fill="#35763B"/>
<path d="M180.718 73.5697C180.591 73.5696 180.466 73.5373 180.355 73.476L149.806 56.6962C149.639 56.6039 149.517 56.4523 149.468 56.2746C149.418 56.0969 149.445 55.9077 149.542 55.7487C149.639 55.5896 149.798 55.4738 149.985 55.4266C150.172 55.3794 150.37 55.4047 150.538 55.497L181.087 72.2767C181.228 72.3521 181.338 72.47 181.4 72.6118C181.463 72.7536 181.474 72.9112 181.432 73.0596C181.389 73.208 181.296 73.3388 181.167 73.4312C181.038 73.5236 180.88 73.5723 180.718 73.5697Z" fill="#35763B"/>
<path d="M180.017 79.5317C179.89 79.5315 179.764 79.4992 179.654 79.4379L149.105 62.6581C149.022 62.6124 148.95 62.5517 148.892 62.4793C148.834 62.407 148.791 62.3245 148.767 62.2365C148.742 62.1485 148.736 62.0568 148.749 61.9665C148.761 61.8763 148.793 61.7893 148.841 61.7106C148.889 61.6318 148.952 61.5628 149.028 61.5076C149.105 61.4523 149.191 61.4118 149.284 61.3885C149.376 61.3651 149.473 61.3593 149.567 61.3714C149.662 61.3834 149.754 61.4132 149.836 61.4589L180.385 78.2386C180.526 78.314 180.637 78.4319 180.699 78.5737C180.762 78.7156 180.773 78.8731 180.73 79.0215C180.688 79.1699 180.595 79.3007 180.466 79.3931C180.337 79.4855 180.179 79.5343 180.017 79.5317Z" fill="#35763B"/>
<path d="M197.649 92.2402C197.319 92.2387 196.995 92.159 196.705 92.0083L187.26 87.0336C186.579 86.6789 186.02 86.1437 185.652 85.4928C185.283 84.8419 185.121 84.1034 185.186 83.3667L186.119 73.363C186.148 73.0525 186.258 72.7539 186.44 72.4947C186.622 72.2356 186.87 72.0242 187.16 71.8801C187.451 71.736 187.775 71.6639 188.102 71.6703C188.43 71.6768 188.75 71.7616 189.034 71.917L198.966 77.3753C199.438 77.6357 199.823 78.0163 200.079 78.4742C200.334 78.9321 200.45 79.449 200.413 79.9663L199.604 90.5228C199.568 90.9889 199.348 91.4247 198.988 91.7431C198.628 92.0615 198.156 92.239 197.665 92.2402H197.649ZM188.049 73.0372C187.969 73.0385 187.891 73.057 187.82 73.0915C187.746 73.127 187.683 73.1803 187.636 73.246C187.59 73.3117 187.562 73.3877 187.556 73.4666L186.638 83.4851C186.595 83.9528 186.696 84.4222 186.928 84.8365C187.16 85.2508 187.513 85.5923 187.945 85.8195L197.39 90.7942C197.461 90.8336 197.543 90.8544 197.626 90.8544C197.708 90.8544 197.79 90.8336 197.862 90.7942C197.935 90.7586 197.997 90.7051 198.042 90.6392C198.086 90.5734 198.112 90.4974 198.116 90.4191L198.925 79.8528C198.943 79.5948 198.885 79.3372 198.757 79.1088C198.63 78.8804 198.438 78.6903 198.204 78.5598L188.266 73.1014C188.201 73.0622 188.126 73.0401 188.049 73.0372Z" fill="#35763B"/>
<path d="M193.052 84.4571C192.989 84.4643 192.924 84.4643 192.861 84.4571C192.751 84.4287 192.65 84.3765 192.565 84.3045C192.481 84.2326 192.415 84.1429 192.373 84.0425L190.215 78.8902C190.16 78.7222 190.173 78.5404 190.254 78.3818C190.334 78.2231 190.475 78.0997 190.648 78.0367C190.821 77.9737 191.012 77.9759 191.184 78.0428C191.355 78.1097 191.493 78.2362 191.569 78.3966L193.379 82.6409L203.69 74.8433C203.843 74.7455 204.028 74.7061 204.21 74.7327C204.392 74.7594 204.557 74.8503 204.671 74.9873C204.786 75.1243 204.842 75.2972 204.828 75.4718C204.814 75.6463 204.732 75.8096 204.598 75.929L193.504 84.3189C193.374 84.4117 193.215 84.4604 193.052 84.4571Z" fill="#35763B"/>
<path d="M178.568 98.2613C178.441 98.2616 178.315 98.2292 178.205 98.1675L147.651 81.3877C147.491 81.2919 147.376 81.1407 147.33 80.9659C147.285 80.7911 147.312 80.6062 147.407 80.4502C147.501 80.2943 147.656 80.1793 147.838 80.1296C148.02 80.0799 148.215 80.0992 148.382 80.1835L178.931 96.9633C179.072 97.0385 179.182 97.156 179.245 97.2973C179.307 97.4386 179.318 97.5957 179.277 97.7438C179.235 97.8919 179.143 98.0227 179.015 98.1154C178.887 98.2082 178.729 98.2578 178.568 98.2563V98.2613Z" fill="#35763B"/>
<path d="M177.866 104.228C177.737 104.228 177.61 104.195 177.498 104.134L146.949 87.3544C146.866 87.3087 146.794 87.248 146.736 87.1756C146.677 87.1033 146.635 87.0208 146.61 86.9328C146.586 86.8448 146.58 86.753 146.592 86.6628C146.605 86.5726 146.636 86.4856 146.684 86.4069C146.732 86.3281 146.796 86.2591 146.872 86.2039C146.948 86.1486 147.035 86.1081 147.127 86.0848C147.22 86.0614 147.316 86.0556 147.411 86.0677C147.506 86.0797 147.597 86.1095 147.68 86.1552L178.229 102.935C178.368 103.012 178.477 103.13 178.538 103.271C178.6 103.412 178.611 103.568 178.569 103.716C178.528 103.864 178.437 103.994 178.31 104.088C178.183 104.181 178.027 104.232 177.866 104.233V104.228Z" fill="#35763B"/>
<path d="M195.492 116.931C195.163 116.932 194.839 116.852 194.553 116.699L185.082 111.724C184.401 111.369 183.843 110.834 183.474 110.183C183.106 109.532 182.944 108.794 183.008 108.057L183.91 98.0388C183.937 97.7285 184.046 97.4299 184.228 97.1709C184.409 96.9119 184.657 96.7011 184.947 96.5582C185.238 96.4147 185.562 96.3432 185.889 96.3501C186.216 96.357 186.536 96.4421 186.82 96.5977L196.752 102.056C197.223 102.318 197.607 102.7 197.862 103.158C198.117 103.617 198.232 104.134 198.194 104.652L197.385 115.218C197.36 115.526 197.254 115.822 197.077 116.081C196.901 116.34 196.659 116.552 196.373 116.699C196.103 116.841 195.801 116.92 195.492 116.931ZM185.891 97.7328C185.812 97.7325 185.734 97.7493 185.663 97.7821C185.591 97.8201 185.529 97.8739 185.483 97.9392C185.437 98.0044 185.408 98.0792 185.399 98.1572L184.501 108.176C184.458 108.643 184.559 109.113 184.791 109.528C185.023 109.942 185.376 110.283 185.808 110.51L195.258 115.485C195.33 115.524 195.41 115.544 195.492 115.545C195.574 115.546 195.655 115.527 195.727 115.49C195.799 115.453 195.86 115.399 195.904 115.334C195.948 115.268 195.974 115.192 195.979 115.115L196.788 104.543C196.808 104.285 196.75 104.027 196.623 103.799C196.495 103.57 196.303 103.38 196.067 103.25L186.12 97.792C186.049 97.7558 185.971 97.7355 185.891 97.7328Z" fill="#35763B"/>
<path d="M194.981 41.2093C194.435 41.2113 193.898 41.0769 193.425 40.8194L180.411 33.8262C180.267 33.7489 180.156 33.627 180.095 33.4807C179.466 31.9362 178.343 30.6189 176.885 29.7151C176.366 29.419 175.007 28.8317 174.291 29.8237C174.186 29.9627 174.03 30.06 173.854 30.0973C173.679 30.1346 173.494 30.1092 173.337 30.026L162.123 24.0347C161.493 23.6885 160.97 23.1907 160.606 22.5913C160.242 21.9919 160.05 21.3119 160.049 20.6195V13.0291C160.049 12.2055 160.298 11.3993 160.765 10.7057C161.232 10.0122 161.898 9.46039 162.684 9.11549C162.789 9.06895 162.906 9.04735 163.022 9.0525C163.138 9.05766 163.252 9.08942 163.353 9.1451L199.379 29.0637C199.496 29.1274 199.592 29.2209 199.656 29.3336C199.721 29.4463 199.751 29.5738 199.743 29.7019C199.736 29.83 199.691 29.9535 199.614 30.0587C199.536 30.1639 199.43 30.2466 199.306 30.2975C198.964 30.4404 198.672 30.6753 198.468 30.9733C198.263 31.2713 198.155 31.6195 198.155 31.9755V38.2037C198.16 38.728 198.018 39.2441 197.745 39.6994C197.472 40.1546 197.076 40.5326 196.599 40.7947C196.108 41.069 195.549 41.2122 194.981 41.2093ZM181.324 32.7355L194.146 39.6103C194.404 39.7492 194.696 39.8213 194.992 39.8194C195.289 39.8174 195.58 39.7415 195.836 39.5992C196.092 39.4568 196.304 39.2531 196.452 39.0082C196.6 38.7633 196.677 38.486 196.677 38.2037V31.9755C196.676 31.1316 197.024 30.3215 197.647 29.7201L162.948 10.5368C162.507 10.7991 162.142 11.1623 161.887 11.5934C161.631 12.0245 161.493 12.5096 161.486 13.0044V20.6195C161.486 21.0683 161.611 21.5089 161.849 21.8965C162.087 22.2841 162.429 22.6046 162.839 22.8255L173.508 28.5455C174.519 27.6966 176.05 27.667 177.595 28.5159C179.267 29.5217 180.57 30.9959 181.324 32.7355Z" fill="#35763B"/>
<path d="M105.265 120.426L99.0415 156.64C98.996 156.905 98.8531 157.145 98.6384 157.319C98.4237 157.493 98.1511 157.588 97.8693 157.588C97.7023 157.588 97.537 157.555 97.3844 157.49C97.2317 157.425 97.0951 157.331 96.9835 157.213C96.8719 157.094 96.7878 156.955 96.7367 156.804C96.6855 156.652 96.6685 156.492 96.6868 156.334L101.064 118.975L105.265 120.426Z" fill="#263238"/>
<path d="M83.7368 108.245L77.5129 144.46C77.4685 144.724 77.3266 144.964 77.1128 145.138C76.8989 145.312 76.627 145.407 76.3459 145.407C76.1788 145.407 76.0136 145.374 75.8609 145.31C75.7083 145.245 75.5717 145.15 75.4601 145.032C75.3485 144.914 75.2644 144.774 75.2132 144.623C75.1621 144.472 75.1451 144.312 75.1633 144.154L79.5408 106.789L83.7368 108.245Z" fill="#263238"/>
<path d="M114.84 111.956L120.996 143.166C121.053 143.403 121.203 143.611 121.416 143.746C121.628 143.881 121.887 143.934 122.138 143.893C122.39 143.853 122.616 143.723 122.771 143.529C122.925 143.335 122.995 143.092 122.967 142.851L118.424 113.925L114.84 111.956Z" fill="#263238"/>
<path d="M93.0684 100.314L99.1886 131.332C99.2312 131.551 99.3532 131.748 99.5334 131.89C99.7135 132.032 99.9403 132.109 100.174 132.107C100.317 132.106 100.459 132.076 100.589 132.019C100.72 131.962 100.836 131.879 100.93 131.776C101.023 131.673 101.093 131.551 101.133 131.42C101.174 131.289 101.185 131.152 101.165 131.017L96.6523 102.279L93.0684 100.314Z" fill="#263238"/>
<path d="M94.8369 97.9553C96.2542 97.3636 97.4812 96.4246 98.3924 95.2341C99.3037 94.0437 99.8665 92.6444 100.023 91.1792C101.014 81.6789 104.531 62.0959 116.455 68.6154C131.164 76.6598 125.899 100.028 123.757 107.52C123.279 109.208 122.347 110.748 121.055 111.991C118.394 114.543 112.891 118.93 103.535 122.661C102.385 123.122 101.104 123.195 99.9042 122.868C95.2362 121.61 83.11 117.736 77.052 110.367C76.7082 109.949 76.5523 109.419 76.6184 108.892C76.6845 108.364 76.9672 107.884 77.4047 107.554C79.8372 105.699 85.3765 101.987 94.8369 97.9553Z" fill="#35763B"/>
<path opacity="0.5" d="M94.8369 97.9553C96.2542 97.3636 97.4812 96.4246 98.3924 95.2341C99.3037 94.0437 99.8665 92.6444 100.023 91.1792C101.014 81.6789 104.531 62.0959 116.455 68.6154C131.164 76.6598 125.899 100.028 123.757 107.52C123.279 109.208 122.347 110.748 121.055 111.991C118.394 114.543 112.891 118.93 103.535 122.661C102.385 123.122 101.104 123.195 99.9042 122.868C95.2362 121.61 83.11 117.736 77.052 110.367C76.7082 109.949 76.5523 109.419 76.6184 108.892C76.6845 108.364 76.9672 107.884 77.4047 107.554C79.8372 105.699 85.3765 101.987 94.8369 97.9553Z" fill="black"/>
<path d="M76.5958 109.03C76.5644 109.512 76.7194 109.988 77.0315 110.368C77.3582 110.763 77.7005 111.143 78.0688 111.518C78.2607 111.72 78.463 111.922 78.6652 112.12C78.8675 112.317 79.075 112.51 79.2824 112.697L79.9204 113.26C80.1382 113.447 80.3613 113.63 80.5843 113.813C84.0178 116.557 88.1878 118.644 91.9118 120.154L92.6016 120.426L92.6742 120.455L93.307 120.697L93.4211 120.742L94.0124 120.964L94.1472 121.013L94.7022 121.211L94.8578 121.265C95.0341 121.329 95.2001 121.388 95.3765 121.442L95.558 121.507L96.03 121.665L96.2271 121.729L96.6627 121.872L96.8702 121.941L97.2644 122.064L97.4874 122.133L97.8453 122.242L98.0839 122.316L98.3899 122.405L98.6492 122.484L98.9033 122.558L99.2197 122.647L99.3805 122.691L99.8266 122.814C101.026 123.141 102.307 123.068 103.457 122.607C112.793 118.876 118.317 114.489 120.978 111.937C122.27 110.695 123.201 109.154 123.68 107.466C125.822 99.9742 131.086 76.6059 116.377 68.5615C116.112 68.4184 115.858 68.2901 115.604 68.1766C115.55 68.1473 115.495 68.1209 115.438 68.0976C115.189 67.9841 114.945 67.8854 114.707 67.7966L114.634 67.7719C114.401 67.688 114.178 67.6189 113.95 67.5547L113.846 67.5251C113.607 67.461 113.369 67.4116 113.135 67.3672H113.073C112.608 67.2863 112.135 67.2533 111.662 67.2685C111.211 67.2832 110.764 67.3495 110.329 67.4659C112.679 66.4788 115.547 66.5233 118.389 68.0779C133.104 76.1223 127.834 99.4856 125.697 106.982L125.334 108.265C124.623 110.881 123.017 113.197 120.77 114.849L116.953 117.628C112.824 120.592 108.311 123.037 103.525 124.902C102.375 125.362 101.095 125.437 99.894 125.114C95.226 123.856 83.0946 119.987 77.0366 112.613C76.7783 112.299 76.6263 111.916 76.601 111.518V109.05L76.5958 109.03Z" fill="#35763B"/>
<path opacity="0.6" d="M76.5958 109.03C76.5644 109.512 76.7194 109.988 77.0315 110.368C77.3582 110.763 77.7005 111.143 78.0688 111.518C78.2607 111.72 78.463 111.922 78.6652 112.12C78.8675 112.317 79.075 112.51 79.2824 112.697L79.9204 113.26C80.1382 113.447 80.3613 113.63 80.5843 113.813C84.0178 116.557 88.1878 118.644 91.9118 120.154L92.6016 120.426L92.6742 120.455L93.307 120.697L93.4211 120.742L94.0124 120.964L94.1472 121.013L94.7022 121.211L94.8578 121.265C95.0341 121.329 95.2001 121.388 95.3765 121.442L95.558 121.507L96.03 121.665L96.2271 121.729L96.6627 121.872L96.8702 121.941L97.2644 122.064L97.4874 122.133L97.8453 122.242L98.0839 122.316L98.3899 122.405L98.6492 122.484L98.9033 122.558L99.2197 122.647L99.3805 122.691L99.8266 122.814C101.026 123.141 102.307 123.068 103.457 122.607C112.793 118.876 118.317 114.489 120.978 111.937C122.27 110.695 123.201 109.154 123.68 107.466C125.822 99.9742 131.086 76.6059 116.377 68.5615C116.112 68.4184 115.858 68.2901 115.604 68.1766C115.55 68.1473 115.495 68.1209 115.438 68.0976C115.189 67.9841 114.945 67.8854 114.707 67.7966L114.634 67.7719C114.401 67.688 114.178 67.6189 113.95 67.5547L113.846 67.5251C113.607 67.461 113.369 67.4116 113.135 67.3672H113.073C112.608 67.2863 112.135 67.2533 111.662 67.2685C111.211 67.2832 110.764 67.3495 110.329 67.4659C112.679 66.4788 115.547 66.5233 118.389 68.0779C133.104 76.1223 127.834 99.4856 125.697 106.982L125.334 108.265C124.623 110.881 123.017 113.197 120.77 114.849L116.953 117.628C112.824 120.592 108.311 123.037 103.525 124.902C102.375 125.362 101.095 125.437 99.894 125.114C95.226 123.856 83.0946 119.987 77.0366 112.613C76.7783 112.299 76.6263 111.916 76.601 111.518V109.05L76.5958 109.03Z" fill="black"/>
<path d="M95.9354 192.381C96.3149 192.563 96.7342 192.658 97.1594 192.658C97.5847 192.658 98.004 192.563 98.3835 192.381C99.0629 192.01 99.0629 191.394 98.3835 191.038C98.0047 190.853 97.5851 190.757 97.1594 190.757C96.7337 190.757 96.3141 190.853 95.9354 191.038C95.2611 191.408 95.2611 192.01 95.9354 192.381Z" fill="#37474F"/>
<path d="M95.4221 191.67H98.8867V152.01H95.4221V191.67Z" fill="#37474F"/>
<path d="M135.293 170.385C135.672 170.567 136.092 170.663 136.517 170.663C136.942 170.663 137.361 170.567 137.741 170.385C138.42 170.01 138.42 169.398 137.741 169.037C137.361 168.855 136.942 168.76 136.517 168.76C136.092 168.76 135.672 168.855 135.293 169.037C134.634 169.408 134.634 170.01 135.293 170.385Z" fill="#263238"/>
<path d="M134.797 169.674H138.262V130.014H134.797V169.674Z" fill="#263238"/>
<path d="M31.3924 156.798C31.7712 156.983 32.1908 157.079 32.6164 157.079C33.0421 157.079 33.4617 156.983 33.8405 156.798C34.5199 156.428 34.5199 155.811 33.8405 155.455C33.461 155.273 33.0417 155.178 32.6164 155.178C32.1912 155.178 31.7719 155.273 31.3924 155.455C30.7182 155.826 30.7182 156.428 31.3924 156.798Z" fill="#37474F"/>
<path d="M30.8791 156.092H34.3438L34.3437 116.432H30.8791L30.8791 156.092Z" fill="#37474F"/>
<path d="M73.7192 126.787C74.0588 126.952 74.4348 127.039 74.8162 127.039C75.1977 127.039 75.5737 126.952 75.9132 126.787C76.045 126.744 76.1594 126.663 76.2403 126.555C76.3213 126.447 76.3648 126.318 76.3648 126.185C76.3648 126.052 76.3213 125.923 76.2403 125.815C76.1594 125.707 76.045 125.626 75.9132 125.583C75.5737 125.417 75.1977 125.331 74.8162 125.331C74.4348 125.331 74.0588 125.417 73.7192 125.583C73.5874 125.626 73.4731 125.707 73.3921 125.815C73.3111 125.923 73.2676 126.052 73.2676 126.185C73.2676 126.318 73.3111 126.447 73.3921 126.555C73.4731 126.663 73.5874 126.744 73.7192 126.787Z" fill="#455A64"/>
<path d="M73.2604 126.155H76.3672V93.0596H73.2604V126.155Z" fill="#455A64"/>
<path d="M138.263 123.446V131.338L97.1543 153.921V146.03L138.263 123.446Z" fill="#263238"/>
<path d="M30.8848 109.622L97.154 146.029V153.921L30.8848 117.513V109.622Z" fill="#37474F"/>
<path d="M71.9938 87.0391L138.263 123.446L97.154 146.03L30.8848 109.623L71.9938 87.0391Z" fill="#455A64"/>
<path opacity="0.2" d="M72.201 126.066L41.7193 109.321C41.6461 109.281 41.5853 109.223 41.543 109.153C41.5008 109.083 41.4785 109.004 41.4785 108.924C41.4785 108.843 41.5008 108.764 41.543 108.694C41.5853 108.625 41.6461 108.567 41.7193 108.526L47.5854 105.304C47.6598 105.266 47.7425 105.247 47.8266 105.247C47.9106 105.247 47.9933 105.266 48.0677 105.304L78.5494 122.049C78.6214 122.09 78.6811 122.147 78.7225 122.217C78.764 122.286 78.7858 122.364 78.7858 122.444C78.7858 122.523 78.764 122.602 78.7225 122.671C78.6811 122.74 78.6214 122.798 78.5494 122.839L72.6782 126.066C72.6053 126.105 72.5231 126.126 72.4396 126.126C72.356 126.126 72.2739 126.105 72.201 126.066Z" fill="black"/>
<path d="M101.385 139.249L83.6054 129.378C83.5656 129.356 83.5326 129.324 83.5096 129.286C83.4867 129.248 83.4746 129.205 83.4746 129.161C83.4746 129.117 83.4867 129.074 83.5096 129.036C83.5326 128.998 83.5656 128.966 83.6054 128.944L103.314 117.386L101.385 139.249Z" fill="#35763B"/>
<path opacity="0.4" d="M101.385 139.249L83.6054 129.378C83.5656 129.356 83.5326 129.324 83.5096 129.286C83.4867 129.248 83.4746 129.205 83.4746 129.161C83.4746 129.117 83.4867 129.074 83.5096 129.036C83.5326 128.998 83.5656 128.966 83.6054 128.944L103.314 117.386L101.385 139.249Z" fill="black"/>
<path d="M101.387 139.248L121.21 128.326V123.361L101.387 134.239V139.248Z" fill="#35763B"/>
<path opacity="0.2" d="M101.387 139.248L121.21 128.326V123.361L101.387 134.239V139.248Z" fill="black"/>
<path d="M117.341 129.092L109.514 133.39C108.996 133.677 108.57 133.39 108.57 132.714C108.576 132.378 108.665 132.049 108.829 131.751C108.993 131.454 109.227 131.197 109.514 131.002L117.341 126.698C117.86 126.412 118.285 126.698 118.285 127.379C118.28 127.715 118.192 128.045 118.028 128.343C117.864 128.64 117.629 128.897 117.341 129.092Z" fill="#E6E6E6"/>
<path d="M107.423 133.346C107.403 133.705 107.294 134.055 107.104 134.366C106.915 134.677 106.651 134.942 106.333 135.137C105.732 135.468 105.244 135.201 105.244 134.54C105.265 134.181 105.374 133.831 105.563 133.52C105.753 133.209 106.016 132.944 106.333 132.748C106.935 132.418 107.423 132.684 107.423 133.346Z" fill="#E6E6E6"/>
<path d="M101.385 134.239L83.6783 126.318C83.6348 126.298 83.5977 126.268 83.5708 126.23C83.544 126.191 83.5284 126.147 83.5258 126.101C83.5231 126.055 83.5335 126.009 83.5558 125.969C83.578 125.928 83.6114 125.894 83.6524 125.869L102.651 115.12C102.758 115.059 102.879 115.025 103.003 115.021C103.127 115.017 103.25 115.042 103.361 115.096L121.209 123.362L101.385 134.239Z" fill="#35763B"/>
<path d="M84.8203 126.826V128.958L99.488 136.855V133.39L84.8203 126.826Z" fill="#F5F5F5"/>
<path d="M99.4863 136.854L101.385 135.724V134.239L99.4863 133.39V136.854Z" fill="#E0E0E0"/>
<path d="M83.5234 124.264V118.767H115.852C115.96 118.767 119.43 120.489 120.966 121.234C121.035 121.27 121.092 121.324 121.133 121.388C121.173 121.453 121.194 121.527 121.194 121.602C121.194 121.677 121.173 121.751 121.133 121.815C121.092 121.88 121.035 121.933 120.966 121.97L101.822 132.289C101.687 132.36 101.536 132.399 101.381 132.403C101.227 132.407 101.074 132.377 100.935 132.314L83.5234 124.264Z" fill="#35763B"/>
<path opacity="0.4" d="M83.5234 124.264V118.767H115.852C115.96 118.767 119.43 120.489 120.966 121.234C121.035 121.27 121.092 121.324 121.133 121.388C121.173 121.453 121.194 121.527 121.194 121.602C121.194 121.677 121.173 121.751 121.133 121.815C121.092 121.88 121.035 121.933 120.966 121.97L101.822 132.289C101.687 132.36 101.536 132.399 101.381 132.403C101.227 132.407 101.074 132.377 100.935 132.314L83.5234 124.264Z" fill="black"/>
<path d="M101.387 130.987L119.727 121.176V119.044L101.387 128.327V130.987Z" fill="#E0E0E0"/>
<path d="M83.5234 124.265L88.3211 121.595L83.5234 118.757V124.265Z" fill="#35763B"/>
<path opacity="0.6" d="M83.5234 124.265L88.3211 121.595L83.5234 118.757V124.265Z" fill="black"/>
<path d="M86.5508 120.549V123.589L101.384 130.987V128.327L86.5508 120.549Z" fill="#F5F5F5"/>
<path d="M83.5234 118.766L100.769 128.548C100.958 128.655 101.172 128.715 101.392 128.721C101.611 128.727 101.829 128.679 102.024 128.583L121.033 119.107C121.1 119.072 121.157 119.022 121.197 118.96C121.238 118.898 121.261 118.828 121.264 118.755C121.267 118.682 121.25 118.61 121.215 118.546C121.18 118.481 121.128 118.426 121.064 118.386L103.71 107.652L83.5234 118.766Z" fill="#35763B"/>
<path d="M90.6855 107.219V108.354L83.0508 112.455V111.32L90.6855 107.219Z" fill="#35763B"/>
<path opacity="0.2" d="M90.6855 107.219V108.354L83.0508 112.455V111.32L90.6855 107.219Z" fill="white"/>
<path d="M65.6289 101.74L83.0507 111.319V112.455L65.6289 102.875V101.74Z" fill="#35763B"/>
<path opacity="0.4" d="M65.6289 101.74L83.0507 111.319V112.455L65.6289 102.875V101.74Z" fill="white"/>
<path d="M73.2636 97.6396L90.6854 107.219L83.0507 111.32L65.6289 101.741L73.2636 97.6396Z" fill="#35763B"/>
<path opacity="0.6" d="M73.2636 97.6396L90.6854 107.219L83.0507 111.32L65.6289 101.741L73.2636 97.6396Z" fill="white"/>
<path d="M76.707 117.889L77.485 118.318V119.67C77.987 119.673 78.4802 119.545 78.9113 119.3L78.9684 119.266C79.1473 119.164 79.3028 119.029 79.4258 118.868C79.5487 118.708 79.6366 118.526 79.6841 118.333C79.7117 118.25 79.7257 118.163 79.7256 118.076V116.23L76.707 117.889Z" fill="#E0E0E0"/>
<path d="M42.8146 68.0279L42.8768 67.9933C43.3089 67.7508 43.8014 67.623 44.3031 67.6232C44.4617 67.6205 44.6179 67.6598 44.7543 67.7367L78.3687 86.1253C78.7817 86.3528 79.1246 86.6795 79.3631 87.0727C79.6016 87.466 79.7273 87.9119 79.7276 88.3659V116.23L76.709 117.888L44.7803 100.423C44.3673 100.195 44.0244 99.8685 43.7859 99.4753C43.5474 99.0821 43.4217 98.6361 43.4214 98.1821V69.2913H42.0625C42.0633 69.037 42.1329 68.7871 42.2646 68.5658C42.3963 68.3445 42.5857 68.1593 42.8146 68.0279Z" fill="#E6E6E6"/>
<path d="M79.437 87.2061C79.6272 87.5659 79.7267 87.963 79.7274 88.3658V116.23L76.7088 117.888L75.5781 117.286V89.5009L79.437 87.2061Z" fill="#E0E0E0"/>
<path d="M78.3687 116.975V118.826C78.3679 118.975 78.326 119.12 78.2473 119.249C78.1687 119.377 78.056 119.484 77.9205 119.558C77.7851 119.632 77.6316 119.67 77.4754 119.67C77.3192 119.67 77.1658 119.631 77.0306 119.556L43.4214 101.168C43.0084 100.94 42.6655 100.614 42.427 100.22C42.1886 99.8271 42.0628 99.3812 42.0625 98.9271V97.0518L78.3687 116.975Z" fill="#F0F0F0"/>
<path d="M42.0625 69.2182C42.0625 69.0692 42.1037 68.9228 42.1819 68.7937C42.2602 68.6646 42.3728 68.5574 42.5084 68.4829C42.6441 68.4084 42.7979 68.3692 42.9545 68.3691C43.1112 68.3691 43.265 68.4084 43.4006 68.4829L77.0098 86.8765C77.4235 87.1031 77.767 87.4297 78.0056 87.8231C78.2442 88.2165 78.3694 88.6628 78.3687 89.1171V116.976L42.0625 97.0332" fill="#F0F0F0"/>
<path d="M61.4133 101.736L55.0078 98.6563L56.5742 97.6396L62.741 100.724L61.4133 101.736Z" fill="#E0E0E0"/>
<path d="M55.0084 98.6514L51.3052 112.658C51.2483 112.875 51.2683 113.104 51.362 113.309C51.4558 113.514 51.6181 113.684 51.8238 113.793L59.4793 117.889C59.4793 117.889 61.8599 101.948 61.419 101.736L55.0084 98.6514Z" fill="#E6E6E6"/>
<path d="M63.5103 114.754L60.8755 113.234L60.3672 116.635L63.5103 114.754Z" fill="#F0F0F0"/>
<path d="M61.4148 101.735L59.0497 117.124C59.0273 117.264 59.0485 117.407 59.1106 117.536C59.1728 117.664 59.2733 117.773 59.3996 117.848C59.5259 117.923 59.6726 117.961 59.8215 117.958C59.9704 117.955 60.115 117.91 60.2374 117.829L63.2768 115.855C63.3869 115.785 63.4772 115.691 63.5396 115.58C63.6021 115.468 63.6347 115.344 63.6347 115.218V114.922C63.6349 114.882 63.6233 114.841 63.6012 114.806C63.5791 114.771 63.5472 114.743 63.5091 114.724C63.4711 114.705 63.4283 114.697 63.3855 114.699C63.3426 114.702 63.3015 114.716 63.2664 114.74L60.3827 116.62L62.7581 100.714L61.4148 101.735Z" fill="#E0E0E0"/>
<path d="M61.2476 93.8931C61.2476 95.2404 60.2518 95.7883 59.0226 95.1121C58.3768 94.7101 57.8394 94.1692 57.4538 93.533C57.0681 92.8969 56.8451 92.1834 56.8027 91.4502C56.8027 90.1029 57.7986 89.5551 59.0226 90.2312C59.67 90.6321 60.2088 91.1727 60.5954 91.8089C60.982 92.4452 61.2055 93.1593 61.2476 93.8931Z" fill="#E0E0E0"/>
<path d="M36.1956 170.301L56.5634 159.201L40.3916 150.718L20.7344 161.728L36.1956 170.301Z" fill="white"/>
<path d="M36.9001 168.45C36.8674 168.449 36.8354 168.441 36.8067 168.426L24.9813 161.867C24.9576 161.857 24.9364 161.843 24.9189 161.825C24.9015 161.807 24.8883 161.785 24.8803 161.762C24.8722 161.739 24.8694 161.714 24.8721 161.69C24.8748 161.666 24.8829 161.642 24.8958 161.621C24.9088 161.6 24.9263 161.581 24.9473 161.567C24.9683 161.553 24.9921 161.543 25.0174 161.538C25.0426 161.534 25.0687 161.534 25.0937 161.54C25.1188 161.545 25.1423 161.556 25.1628 161.571L36.9882 168.12C37.0091 168.131 37.0274 168.146 37.0421 168.164C37.0568 168.182 37.0676 168.203 37.0739 168.225C37.0801 168.247 37.0818 168.27 37.0786 168.292C37.0755 168.315 37.0677 168.337 37.0557 168.357C37.0409 168.384 37.0187 168.407 36.9913 168.424C36.9639 168.44 36.9324 168.449 36.9001 168.45Z" fill="#E0E0E0"/>
<path d="M38.8198 167.329C38.7909 167.337 38.7605 167.337 38.7316 167.329L26.9217 160.746C26.9015 160.735 26.8838 160.72 26.8696 160.702C26.8555 160.684 26.8453 160.664 26.8395 160.642C26.8337 160.621 26.8325 160.598 26.8359 160.576C26.8393 160.554 26.8473 160.533 26.8595 160.514C26.8708 160.494 26.8862 160.477 26.9047 160.463C26.9231 160.449 26.9444 160.439 26.9671 160.433C26.9898 160.427 27.0136 160.425 27.037 160.428C27.0604 160.431 27.0829 160.438 27.1032 160.45L38.9339 167.009C38.9751 167.032 39.0049 167.07 39.0165 167.115C39.0282 167.159 39.0209 167.206 38.9961 167.246C38.9788 167.275 38.9528 167.298 38.9214 167.313C38.89 167.328 38.8546 167.334 38.8198 167.329Z" fill="#E0E0E0"/>
<path d="M40.7295 166.258C40.7007 166.266 40.6703 166.266 40.6414 166.258L28.8107 159.68C28.7695 159.656 28.7397 159.618 28.7281 159.573C28.7164 159.529 28.7237 159.482 28.7485 159.443C28.7598 159.423 28.7752 159.406 28.7937 159.392C28.8122 159.378 28.8334 159.368 28.8561 159.362C28.8789 159.356 28.9026 159.354 28.926 159.357C28.9494 159.36 28.9719 159.367 28.9923 159.378L40.8229 165.942C40.8586 165.96 40.8867 165.989 40.9026 166.025C40.9185 166.06 40.9212 166.099 40.9103 166.136C40.8994 166.173 40.8755 166.205 40.8426 166.228C40.8097 166.25 40.7698 166.261 40.7295 166.258Z" fill="#E0E0E0"/>
<path d="M42.673 165.158C42.6403 165.157 42.6083 165.148 42.5796 165.134L30.7542 158.575C30.7131 158.551 30.6831 158.513 30.6706 158.469C30.658 158.425 30.6638 158.378 30.6867 158.338C30.6985 158.318 30.7144 158.3 30.7335 158.286C30.7526 158.273 30.7745 158.263 30.7978 158.257C30.8211 158.251 30.8454 158.25 30.8691 158.254C30.8928 158.258 30.9155 158.266 30.9357 158.278L42.7611 164.837C42.7818 164.848 42.8 164.863 42.8147 164.88C42.8293 164.898 42.8401 164.918 42.8464 164.94C42.8527 164.961 42.8543 164.984 42.8513 165.006C42.8482 165.029 42.8405 165.05 42.8286 165.069C42.8131 165.096 42.7906 165.118 42.7633 165.134C42.736 165.149 42.7048 165.158 42.673 165.158Z" fill="#E0E0E0"/>
<path d="M44.6143 164.023C44.5831 164.022 44.5527 164.014 44.5261 163.998L32.6955 157.44C32.6542 157.416 32.6245 157.378 32.6128 157.333C32.6012 157.289 32.6085 157.242 32.6333 157.203C32.6445 157.183 32.6599 157.166 32.6785 157.152C32.6972 157.138 32.7186 157.128 32.7415 157.122C32.7644 157.117 32.7883 157.116 32.8116 157.119C32.8349 157.123 32.8572 157.131 32.877 157.143L44.7077 163.702C44.7279 163.714 44.7456 163.728 44.7597 163.746C44.7738 163.764 44.7841 163.784 44.7899 163.806C44.7957 163.827 44.7969 163.85 44.7935 163.872C44.79 163.894 44.782 163.915 44.7699 163.934C44.7544 163.961 44.7319 163.983 44.7046 163.999C44.6773 164.014 44.6461 164.023 44.6143 164.023Z" fill="#E0E0E0"/>
<path d="M46.5583 162.902C46.5256 162.901 46.4936 162.893 46.4649 162.878L34.6395 156.319C34.6158 156.309 34.5946 156.295 34.5771 156.277C34.5597 156.259 34.5466 156.238 34.5385 156.214C34.5304 156.191 34.5276 156.166 34.5303 156.142C34.533 156.118 34.5411 156.094 34.554 156.073C34.567 156.052 34.5845 156.034 34.6055 156.019C34.6265 156.005 34.6504 155.995 34.6756 155.991C34.7008 155.986 34.7269 155.986 34.7519 155.992C34.777 155.997 34.8005 156.008 34.821 156.023L46.6464 162.582C46.6671 162.592 46.6853 162.607 46.7 162.625C46.7146 162.642 46.7254 162.662 46.7317 162.684C46.738 162.706 46.7396 162.728 46.7366 162.751C46.7335 162.773 46.7258 162.794 46.7139 162.814C46.698 162.84 46.6754 162.862 46.6482 162.877C46.6209 162.893 46.59 162.901 46.5583 162.902Z" fill="#E0E0E0"/>
<path d="M48.4971 161.782C48.466 161.781 48.4355 161.773 48.409 161.757L36.5783 155.198C36.5371 155.175 36.5073 155.137 36.4957 155.092C36.484 155.048 36.4913 155.001 36.5161 154.961C36.5278 154.942 36.5435 154.925 36.5622 154.912C36.5809 154.898 36.6022 154.889 36.6249 154.883C36.6476 154.878 36.6712 154.876 36.6944 154.88C36.7176 154.883 36.7398 154.891 36.7598 154.902L48.5905 161.461C48.6107 161.472 48.6284 161.487 48.6426 161.505C48.6567 161.523 48.6669 161.543 48.6727 161.565C48.6785 161.586 48.6797 161.609 48.6763 161.631C48.6729 161.653 48.6649 161.674 48.6527 161.693C48.6381 161.72 48.6158 161.743 48.5883 161.759C48.5608 161.774 48.5292 161.782 48.4971 161.782Z" fill="#E0E0E0"/>
<path d="M50.443 160.662C50.4103 160.661 50.3784 160.653 50.3497 160.638L38.5242 154.079C38.5006 154.069 38.4793 154.055 38.4619 154.037C38.4445 154.019 38.4313 153.997 38.4232 153.974C38.4152 153.951 38.4124 153.926 38.4151 153.902C38.4177 153.877 38.4258 153.854 38.4388 153.833C38.4518 153.812 38.4693 153.793 38.4903 153.779C38.5112 153.765 38.5351 153.755 38.5604 153.75C38.5856 153.746 38.6116 153.746 38.6367 153.752C38.6618 153.757 38.6853 153.768 38.7058 153.783L50.5312 160.341C50.5521 160.353 50.5704 160.368 50.5851 160.386C50.5998 160.404 50.6105 160.425 50.6168 160.447C50.6231 160.469 50.6247 160.492 50.6216 160.514C50.6185 160.537 50.6107 160.559 50.5986 160.578C50.5825 160.604 50.5597 160.625 50.5324 160.64C50.5052 160.654 50.4744 160.662 50.443 160.662Z" fill="#E0E0E0"/>
<path d="M52.3819 159.542C52.3507 159.541 52.3203 159.532 52.2937 159.517L40.4631 152.958C40.4218 152.934 40.3921 152.896 40.3804 152.852C40.3687 152.807 40.3761 152.76 40.4008 152.721C40.4126 152.702 40.4283 152.685 40.447 152.672C40.4657 152.658 40.487 152.648 40.5097 152.643C40.5324 152.637 40.556 152.636 40.5791 152.64C40.6023 152.643 40.6246 152.65 40.6446 152.662L52.4752 159.236C52.5165 159.259 52.5462 159.297 52.5579 159.342C52.5696 159.386 52.5622 159.433 52.5375 159.473C52.5199 159.496 52.4963 159.514 52.4691 159.526C52.4419 159.538 52.4119 159.544 52.3819 159.542Z" fill="#E0E0E0"/>
<path d="M20.7949 161.674L36.251 170.246V183.423L20.7949 175.3V161.674Z" fill="#FAFAFA"/>
<path d="M36.2539 170.247L56.6217 159.147V172.172L36.2539 183.424V170.247Z" fill="#E6E6E6"/>
<path d="M32.9297 171.535L36.2543 173.38L43.4481 169.462L36.2543 174.382L32.9297 171.535Z" fill="#E0E0E0"/>
<path d="M32.9297 176.119L36.2543 177.965L40.3206 175.754L36.2543 178.967L32.9297 176.119Z" fill="#E0E0E0"/>
<path d="M38.1855 173.997L40.727 174.717L42.672 171.919L38.1855 173.997Z" fill="#E0E0E0"/>
<path d="M38.1855 173.997L45.8565 169.842L42.0236 173.997H38.1855Z" fill="white"/>
<path d="M49.6699 165.064L51.4697 165.578L52.8441 163.594L49.6699 165.064Z" fill="#E0E0E0"/>
<path d="M49.6699 165.063L55.1003 162.122L52.3825 165.063H49.6699Z" fill="white"/>
<path d="M45.7871 174.861L47.5869 175.375L48.9613 173.391L45.7871 174.861Z" fill="#E0E0E0"/>
<path d="M45.7871 174.86L51.2175 171.919L48.4997 174.86H45.7871Z" fill="white"/>
<path d="M67.7249 200.584L49.9452 190.713C49.9054 190.691 49.8724 190.659 49.8495 190.621C49.8265 190.583 49.8145 190.54 49.8145 190.496C49.8145 190.452 49.8265 190.409 49.8495 190.371C49.8724 190.333 49.9054 190.301 49.9452 190.279L69.6543 178.721L67.7249 200.584Z" fill="#35763B"/>
<path opacity="0.4" d="M67.7249 200.584L49.9452 190.713C49.9054 190.691 49.8724 190.659 49.8495 190.621C49.8265 190.583 49.8145 190.54 49.8145 190.496C49.8145 190.452 49.8265 190.409 49.8495 190.371C49.8724 190.333 49.9054 190.301 49.9452 190.279L69.6543 178.721L67.7249 200.584Z" fill="black"/>
<path d="M67.7246 200.583L87.5478 189.661V184.696L67.7246 195.574V200.583Z" fill="#35763B"/>
<path opacity="0.2" d="M67.7246 200.583L87.5478 189.661V184.696L67.7246 195.574V200.583Z" fill="black"/>
<path d="M83.6768 190.427L75.8502 194.73C75.3315 195.017 74.9062 194.73 74.9062 194.049C74.911 193.713 74.999 193.383 75.163 193.086C75.327 192.788 75.5625 192.531 75.8502 192.337L83.6768 188.038C84.1955 187.752 84.6208 188.038 84.6208 188.714C84.6148 189.05 84.5263 189.38 84.3623 189.677C84.1984 189.974 83.9637 190.231 83.6768 190.427Z" fill="#E6E6E6"/>
<path d="M73.7572 194.681C73.7366 195.04 73.6272 195.39 73.438 195.702C73.2488 196.015 72.985 196.28 72.668 196.477C72.0715 196.808 71.584 196.536 71.584 195.88C71.6044 195.521 71.7131 195.171 71.9014 194.859C72.0897 194.547 72.3522 194.281 72.668 194.083C73.2696 193.753 73.7572 194.019 73.7572 194.681Z" fill="#E6E6E6"/>
<path d="M67.7234 195.574L50.0111 187.653C49.9688 187.632 49.9335 187.6 49.9088 187.56C49.8841 187.521 49.8711 187.477 49.8711 187.431C49.8711 187.385 49.8841 187.341 49.9088 187.301C49.9335 187.262 49.9688 187.23 50.0111 187.209L69.0045 176.46C69.1116 176.398 69.2333 176.363 69.3584 176.358C69.4834 176.353 69.6079 176.378 69.7202 176.43L87.5725 184.697L67.7234 195.574Z" fill="#35763B"/>
<path d="M51.1543 188.167V190.294L65.8272 198.19V194.726L51.1543 188.167Z" fill="#F5F5F5"/>
<path d="M65.8242 198.189L67.7225 197.064V195.573L65.8242 194.725V198.189Z" fill="#E0E0E0"/>
<path d="M49.8633 185.599V180.097H82.1862C82.3003 180.097 85.7701 181.814 87.3053 182.564C87.3744 182.601 87.432 182.655 87.472 182.72C87.512 182.785 87.5331 182.859 87.5331 182.934C87.5331 183.01 87.512 183.084 87.472 183.149C87.432 183.214 87.3744 183.268 87.3053 183.305L68.1512 193.609C68.0168 193.682 67.8657 193.723 67.711 193.727C67.5564 193.731 67.403 193.699 67.2643 193.634L49.8633 185.599Z" fill="#35763B"/>
<path opacity="0.4" d="M49.8633 185.599V180.097H82.1862C82.3003 180.097 85.7701 181.814 87.3053 182.564C87.3744 182.601 87.432 182.655 87.472 182.72C87.512 182.785 87.5331 182.859 87.5331 182.934C87.5331 183.01 87.512 183.084 87.472 183.149C87.432 183.214 87.3744 183.268 87.3053 183.305L68.1512 193.609C68.0168 193.682 67.8657 193.723 67.711 193.727C67.5564 193.731 67.403 193.699 67.2643 193.634L49.8633 185.599Z" fill="black"/>
<path d="M67.7246 192.326L86.0644 182.51V180.378L67.7246 189.661V192.326Z" fill="#E0E0E0"/>
<path d="M49.8633 185.599L54.6609 182.93L49.8633 180.097V185.599Z" fill="#35763B"/>
<path opacity="0.6" d="M49.8633 185.599L54.6609 182.93L49.8633 180.097V185.599Z" fill="black"/>
<path d="M52.8926 181.884V184.924L67.7263 192.327V189.662L52.8926 181.884Z" fill="#F5F5F5"/>
<path d="M49.8633 180.097L67.1087 189.874C67.2961 189.982 67.5098 190.042 67.7289 190.048C67.948 190.054 68.1651 190.006 68.3587 189.908L87.3728 180.458C87.4383 180.42 87.4926 180.368 87.5303 180.304C87.568 180.241 87.5878 180.17 87.5878 180.097C87.5878 180.025 87.568 179.953 87.5303 179.89C87.4926 179.827 87.4383 179.774 87.3728 179.737L70.0236 169.008L49.8633 180.097Z" fill="#35763B"/>
<path d="M67.7249 188.166L49.9452 178.295C49.9054 178.273 49.8724 178.241 49.8495 178.203C49.8265 178.165 49.8145 178.122 49.8145 178.078C49.8145 178.034 49.8265 177.991 49.8495 177.953C49.8724 177.915 49.9054 177.883 49.9452 177.861L69.6543 166.303L67.7249 188.166Z" fill="#35763B"/>
<path opacity="0.4" d="M67.7249 188.166L49.9452 178.295C49.9054 178.273 49.8724 178.241 49.8495 178.203C49.8265 178.165 49.8145 178.122 49.8145 178.078C49.8145 178.034 49.8265 177.991 49.8495 177.953C49.8724 177.915 49.9054 177.883 49.9452 177.861L69.6543 166.303L67.7249 188.166Z" fill="black"/>
<path d="M67.7246 188.166L87.5478 177.244V172.279L67.7246 183.157V188.166Z" fill="#35763B"/>
<path opacity="0.2" d="M67.7246 188.166L87.5478 177.244V172.279L67.7246 183.157V188.166Z" fill="black"/>
<path d="M83.6768 177.99L75.8502 182.289C75.3315 182.575 74.9062 182.289 74.9062 181.613C74.911 181.277 74.999 180.947 75.163 180.649C75.327 180.351 75.5625 180.095 75.8502 179.9L83.6768 175.597C84.1955 175.31 84.6208 175.597 84.6208 176.278C84.6148 176.613 84.5263 176.943 84.3623 177.241C84.1984 177.538 83.9637 177.795 83.6768 177.99Z" fill="#E6E6E6"/>
<path d="M73.7572 182.264C73.7374 182.623 73.6284 182.973 73.4391 183.284C73.2497 183.595 72.9855 183.86 72.668 184.055C72.0715 184.386 71.584 184.119 71.584 183.458C71.6044 183.099 71.7131 182.75 71.9014 182.439C72.0897 182.128 72.3523 181.863 72.668 181.666C73.2696 181.336 73.7572 181.602 73.7572 182.264Z" fill="#E6E6E6"/>
<path d="M67.7244 183.156L50.0122 175.235C49.97 175.213 49.9349 175.181 49.9104 175.141C49.8859 175.102 49.873 175.057 49.873 175.011C49.873 174.965 49.8859 174.92 49.9104 174.88C49.9349 174.841 49.97 174.808 50.0122 174.786L69.0055 164.037C69.1131 163.976 69.235 163.942 69.3601 163.938C69.4852 163.934 69.6094 163.959 69.7213 164.013L87.5736 172.279L67.7244 183.156Z" fill="#35763B"/>
<path d="M51.1543 175.744V177.876L65.8272 185.773V182.308L51.1543 175.744Z" fill="#F5F5F5"/>
<path d="M65.8242 185.773L67.7225 184.643V183.157L65.8242 182.309V185.773Z" fill="#E0E0E0"/>
<path d="M49.8887 172.822V167.314H82.2116C82.3205 167.314 85.7903 169.037 87.3256 169.782C87.3948 169.818 87.4525 169.871 87.4927 169.936C87.533 170.001 87.5542 170.075 87.5542 170.15C87.5542 170.225 87.533 170.299 87.4927 170.363C87.4525 170.428 87.3948 170.481 87.3256 170.517L68.1663 180.827C68.0299 180.894 67.8787 180.929 67.7254 180.929C67.5721 180.929 67.4209 180.894 67.2845 180.827L49.8887 172.822Z" fill="#35763B"/>
<path opacity="0.4" d="M49.8887 172.822V167.314H82.2116C82.3205 167.314 85.7903 169.037 87.3256 169.782C87.3948 169.818 87.4525 169.871 87.4927 169.936C87.533 170.001 87.5542 170.075 87.5542 170.15C87.5542 170.225 87.533 170.299 87.4927 170.363C87.4525 170.428 87.3948 170.481 87.3256 170.517L68.1663 180.827C68.0299 180.894 67.8787 180.929 67.7254 180.929C67.5721 180.929 67.4209 180.894 67.2845 180.827L49.8887 172.822Z" fill="black"/>
<path d="M67.7461 179.545L86.0911 169.729V167.597L67.7461 176.885V179.545Z" fill="#E0E0E0"/>
<path d="M49.8887 172.822L54.6811 170.152L49.8887 167.314V172.822Z" fill="#35763B"/>
<path opacity="0.6" d="M49.8887 172.822L54.6811 170.152L49.8887 167.314V172.822Z" fill="black"/>
<path d="M52.9141 169.106V172.147L67.7477 179.544V176.884L52.9141 169.106Z" fill="#F5F5F5"/>
<path d="M49.8887 167.314L67.1341 177.096C67.3218 177.203 67.5354 177.263 67.7544 177.269C67.9733 177.275 68.1901 177.227 68.3841 177.131L87.3982 167.655C87.4651 167.62 87.5214 167.569 87.5614 167.507C87.6014 167.445 87.6238 167.374 87.6264 167.302C87.629 167.229 87.6117 167.157 87.5763 167.093C87.5408 167.028 87.4884 166.974 87.4241 166.934L70.0697 156.2L49.8887 167.314Z" fill="#35763B"/>
<path d="M67.7451 175.385L49.9706 165.514C49.9308 165.492 49.8978 165.46 49.8749 165.422C49.8519 165.384 49.8398 165.341 49.8398 165.297C49.8398 165.253 49.8519 165.21 49.8749 165.172C49.8978 165.134 49.9308 165.102 49.9706 165.08L69.6797 153.526L67.7451 175.385Z" fill="#35763B"/>
<path opacity="0.4" d="M67.7451 175.385L49.9706 165.514C49.9308 165.492 49.8978 165.46 49.8749 165.422C49.8519 165.384 49.8398 165.341 49.8398 165.297C49.8398 165.253 49.8519 165.21 49.8749 165.172C49.8978 165.134 49.9308 165.102 49.9706 165.08L69.6797 153.526L67.7451 175.385Z" fill="black"/>
<path d="M67.7461 175.384L87.5693 164.463V159.503L67.7461 170.375V175.384Z" fill="#35763B"/>
<path opacity="0.2" d="M67.7461 175.384L87.5693 164.463V159.503L67.7461 170.375V175.384Z" fill="black"/>
<path d="M83.7061 165.232L75.8743 169.531C75.3557 169.817 74.9355 169.531 74.9355 168.855C74.9406 168.519 75.028 168.189 75.191 167.89C75.354 167.592 75.588 167.334 75.8743 167.137L83.7061 162.839C84.2248 162.553 84.6449 162.839 84.6449 163.515C84.6399 163.851 84.5524 164.181 84.3894 164.48C84.2264 164.778 83.9924 165.036 83.7061 165.232Z" fill="#E6E6E6"/>
<path d="M73.7838 169.487C73.7629 169.846 73.6533 170.195 73.4641 170.506C73.2749 170.818 73.0113 171.082 72.6947 171.278C72.093 171.609 71.6055 171.343 71.6055 170.681C71.6261 170.322 71.7354 169.971 71.9246 169.659C72.1138 169.347 72.3776 169.082 72.6947 168.885C73.2963 168.559 73.7838 168.826 73.7838 169.487Z" fill="#E6E6E6"/>
<path d="M67.7446 170.375L50.0376 162.478C49.9954 162.456 49.9603 162.423 49.9358 162.384C49.9113 162.344 49.8984 162.299 49.8984 162.254C49.8984 162.208 49.9113 162.163 49.9358 162.123C49.9603 162.084 49.9954 162.051 50.0376 162.029L69.0309 151.28C69.1385 151.22 69.2601 151.186 69.3849 151.18C69.5097 151.175 69.6339 151.199 69.7467 151.251L87.573 159.502L67.7446 170.375Z" fill="#35763B"/>
<path d="M51.1797 162.967V165.094L65.8526 172.995V169.526L51.1797 162.967Z" fill="#F5F5F5"/>
<path d="M65.8516 172.995L67.7447 171.865V170.374L65.8516 169.525V172.995Z" fill="#E0E0E0"/>
<path d="M67.2542 156.072L87.622 144.973L71.445 136.489L51.793 147.5L67.2542 156.072Z" fill="#FAFAFA"/>
<path d="M67.9528 154.216C67.9239 154.223 67.8936 154.223 67.8647 154.216L56.0392 147.638C56.0183 147.626 56 147.611 55.9853 147.593C55.9706 147.575 55.9598 147.555 55.9536 147.533C55.9473 147.511 55.9457 147.488 55.9488 147.465C55.9519 147.442 55.9597 147.421 55.9718 147.401C55.9835 147.382 55.9992 147.365 56.0179 147.351C56.0366 147.338 56.0579 147.328 56.0806 147.323C56.1033 147.317 56.1269 147.316 56.1501 147.319C56.1733 147.322 56.1955 147.33 56.2155 147.342L68.0462 153.901C68.0669 153.911 68.0851 153.926 68.0997 153.944C68.1143 153.961 68.1251 153.981 68.1314 154.003C68.1377 154.025 68.1394 154.047 68.1363 154.069C68.1332 154.092 68.1255 154.113 68.1136 154.132C68.0963 154.158 68.0725 154.179 68.0444 154.194C68.0163 154.209 67.9849 154.216 67.9528 154.216Z" fill="#E0E0E0"/>
<path d="M69.8995 153.095C69.8706 153.103 69.8402 153.103 69.8114 153.095L57.9807 146.536C57.9396 146.513 57.9097 146.475 57.8971 146.431C57.8846 146.387 57.8904 146.34 57.9133 146.3C57.925 146.28 57.941 146.262 57.9601 146.248C57.9792 146.234 58.001 146.224 58.0243 146.219C58.0477 146.213 58.0719 146.212 58.0956 146.216C58.1194 146.22 58.142 146.228 58.1623 146.24L69.9877 152.799C70.0228 152.817 70.0506 152.846 70.0665 152.88C70.0824 152.915 70.0855 152.954 70.0753 152.991C70.0651 153.027 70.0422 153.059 70.0102 153.082C69.9783 153.105 69.9393 153.116 69.8995 153.115V153.095Z" fill="#E0E0E0"/>
<path d="M71.7862 152.031C71.7573 152.038 71.7269 152.038 71.698 152.031L59.8674 145.472C59.8261 145.448 59.7964 145.41 59.7847 145.366C59.773 145.321 59.7804 145.274 59.8051 145.235C59.8169 145.216 59.8326 145.199 59.8513 145.185C59.87 145.172 59.8913 145.162 59.914 145.157C59.9367 145.151 59.9603 145.15 59.9834 145.153C60.0066 145.156 60.0289 145.164 60.0489 145.176L71.8796 151.735C71.9208 151.758 71.9505 151.796 71.9622 151.841C71.9739 151.885 71.9665 151.932 71.9418 151.971C71.9231 151.993 71.899 152.009 71.8719 152.02C71.8447 152.03 71.8153 152.034 71.7862 152.031Z" fill="#E0E0E0"/>
<path d="M73.7311 150.91C73.6984 150.909 73.6665 150.9 73.6378 150.885L61.8123 144.326C61.7916 144.315 61.7734 144.301 61.7588 144.283C61.7442 144.266 61.7334 144.245 61.7271 144.224C61.7208 144.202 61.7191 144.18 61.7222 144.157C61.7252 144.135 61.733 144.114 61.7449 144.094C61.7567 144.074 61.7726 144.057 61.7915 144.043C61.8105 144.029 61.8322 144.019 61.8553 144.013C61.8785 144.007 61.9026 144.005 61.9264 144.008C61.9502 144.011 61.9731 144.019 61.9938 144.03L73.8193 150.589C73.8604 150.613 73.8903 150.651 73.9029 150.695C73.9155 150.739 73.9097 150.786 73.8867 150.826C73.8702 150.851 73.8473 150.872 73.8202 150.887C73.793 150.901 73.7624 150.909 73.7311 150.91Z" fill="#E0E0E0"/>
<path d="M75.6706 149.789C75.6391 149.791 75.6079 149.783 75.5824 149.765L63.7518 143.206C63.7315 143.195 63.7138 143.18 63.6997 143.162C63.6856 143.144 63.6753 143.124 63.6695 143.102C63.6638 143.081 63.6625 143.058 63.666 143.036C63.6694 143.014 63.6774 142.993 63.6895 142.974C63.7009 142.954 63.7162 142.937 63.7347 142.923C63.7532 142.909 63.7745 142.899 63.7972 142.893C63.8199 142.887 63.8437 142.885 63.867 142.888C63.8904 142.891 63.913 142.898 63.9333 142.91L75.7639 149.469C75.8052 149.492 75.8349 149.53 75.8466 149.575C75.8583 149.619 75.8509 149.666 75.8262 149.706C75.8105 149.731 75.7878 149.753 75.7604 149.768C75.733 149.782 75.702 149.79 75.6706 149.789Z" fill="#E0E0E0"/>
<path d="M77.6107 148.669C77.582 148.677 77.5512 148.677 77.5225 148.669L65.6971 142.11C65.6764 142.099 65.6582 142.084 65.6436 142.067C65.6289 142.049 65.6181 142.029 65.6118 142.007C65.6056 141.986 65.6039 141.963 65.607 141.941C65.61 141.919 65.6177 141.897 65.6296 141.878C65.6545 141.839 65.6942 141.81 65.7406 141.798C65.787 141.786 65.8364 141.792 65.8786 141.814L77.7196 148.348C77.7607 148.371 77.7907 148.409 77.8032 148.453C77.8158 148.498 77.81 148.545 77.7871 148.585C77.7684 148.613 77.7421 148.635 77.7111 148.65C77.68 148.665 77.6453 148.671 77.6107 148.669Z" fill="#E0E0E0"/>
<path d="M79.5553 147.549C79.5238 147.55 79.4926 147.542 79.4672 147.524L67.6365 140.975C67.6158 140.964 67.5976 140.95 67.583 140.932C67.5684 140.914 67.5576 140.894 67.5513 140.872C67.545 140.851 67.5434 140.828 67.5464 140.806C67.5495 140.784 67.5572 140.762 67.5691 140.743C67.594 140.704 67.6337 140.675 67.6801 140.663C67.7264 140.651 67.7759 140.657 67.8181 140.679L79.6435 147.238C79.6644 147.249 79.6827 147.264 79.6974 147.282C79.7121 147.3 79.7229 147.321 79.7291 147.343C79.7354 147.365 79.737 147.388 79.7339 147.41C79.7308 147.433 79.723 147.455 79.7109 147.475C79.6939 147.499 79.6707 147.518 79.6434 147.531C79.6161 147.544 79.5858 147.55 79.5553 147.549Z" fill="#E0E0E0"/>
<path d="M81.5006 146.429C81.47 146.436 81.438 146.436 81.4073 146.429L69.5818 139.866C69.5612 139.855 69.543 139.84 69.5283 139.823C69.5137 139.805 69.5029 139.785 69.4966 139.763C69.4903 139.741 69.4887 139.719 69.4917 139.697C69.4948 139.674 69.5025 139.653 69.5144 139.634C69.5393 139.594 69.579 139.566 69.6254 139.554C69.6717 139.542 69.7212 139.548 69.7634 139.569L81.5888 146.128C81.6299 146.152 81.6599 146.19 81.6724 146.234C81.685 146.278 81.6792 146.325 81.6562 146.365C81.6375 146.387 81.6136 146.404 81.5865 146.415C81.5595 146.426 81.5301 146.431 81.5006 146.429Z" fill="#E0E0E0"/>
<path d="M83.4245 145.309C83.3938 145.316 83.3618 145.316 83.3311 145.309L71.5057 138.75C71.4849 138.739 71.4667 138.723 71.452 138.705C71.4374 138.687 71.4267 138.667 71.4204 138.645C71.4141 138.623 71.4125 138.6 71.4156 138.577C71.4186 138.555 71.4263 138.533 71.4382 138.513C71.4502 138.493 71.4661 138.476 71.485 138.462C71.504 138.448 71.5256 138.438 71.5488 138.432C71.5719 138.426 71.596 138.424 71.6198 138.427C71.6435 138.43 71.6664 138.437 71.6872 138.449L83.5127 145.008C83.5335 145.019 83.5518 145.034 83.5665 145.052C83.5812 145.07 83.592 145.091 83.5983 145.113C83.6045 145.135 83.6062 145.158 83.603 145.18C83.5999 145.203 83.5921 145.225 83.5801 145.245C83.5619 145.267 83.5381 145.284 83.5109 145.296C83.4837 145.307 83.454 145.311 83.4245 145.309Z" fill="#E0E0E0"/>
<path d="M51.8496 147.441L67.3109 156.019V169.196L51.8496 161.073V147.441Z" fill="#F0F0F0"/>
<path d="M67.3105 156.018L87.6783 144.914V157.943L67.3105 169.195V156.018Z" fill="#E6E6E6"/>
<path d="M63.9844 157.306L67.309 159.147L74.5028 155.229L67.309 160.149L63.9844 157.306Z" fill="#E0E0E0"/>
<path d="M63.9844 161.892L67.309 163.737L71.3701 161.521L67.309 164.739L63.9844 161.892Z" fill="#E0E0E0"/>
<path d="M69.2441 159.768L71.7856 160.489L73.7306 157.69L69.2441 159.768Z" fill="#E0E0E0"/>
<path d="M69.2441 159.768L76.9151 155.607L73.077 159.768H69.2441Z" fill="white"/>
<path d="M80.7227 150.836L82.5224 151.344L83.8969 149.365L80.7227 150.836Z" fill="#E0E0E0"/>
<path d="M80.7227 150.837L86.153 147.891L83.4404 150.837H80.7227Z" fill="white"/>
<path d="M76.8438 160.632L78.6435 161.14L80.018 159.161L76.8438 160.632Z" fill="#E0E0E0"/>
<path d="M76.8438 160.632L82.2741 157.69L79.5563 160.632H76.8438Z" fill="white"/>
<path d="M57.3991 161.042L56.0817 161.417L55.0703 159.961L57.3991 161.042Z" fill="#E0E0E0"/>
<path d="M57.3993 161.043L53.416 158.881L55.4077 161.043H57.3993Z" fill="white"/>
<path d="M62.5844 155.87L60.7846 156.378L59.4102 154.399L62.5844 155.87Z" fill="#E0E0E0"/>
<path d="M62.5847 155.87L57.1543 152.929L59.8721 155.87H62.5847Z" fill="white"/>
<path d="M189.215 182.584L187.488 181.898L187.934 179.904L189.215 182.584Z" fill="#37474F"/>
<path d="M191.16 177.22L191.896 180.354L189.215 182.584L187.934 179.904L191.16 177.22Z" fill="#455A64"/>
<path d="M183.766 173.967C183.255 175.265 182.889 176.612 182.677 177.984C182.319 179.929 181.371 181.733 179.949 183.171C178.688 184.276 176.437 186.823 180.343 187.277C184.383 187.771 187.77 184.573 187.822 182.811C187.874 181.049 188.367 179.667 189.378 178.863C190.389 178.058 191.178 177.234 191.178 177.234C191.178 177.234 189.378 171.085 187.837 171.43C186.297 171.776 183.766 173.967 183.766 173.967Z" fill="#263238"/>
<path d="M185.326 167.951C184.164 166.283 182.852 164.319 181.794 162.523C179.304 158.259 175.533 151.487 171.835 150.135V121.387L157.634 120.766C157.634 120.766 152.966 136.514 159.6 149.173C164.341 158.239 174.641 167.69 180.082 172.319C181.783 172.067 184.895 171.135 185.326 167.951Z" fill="#455A64"/>
<path d="M188.195 171.915C188.195 171.915 186.899 170.212 185.322 167.967C184.891 171.15 181.779 172.068 180.078 172.334C182.236 174.165 183.641 175.246 183.641 175.246C183.641 175.246 188.268 175.843 188.195 171.915Z" fill="#945959"/>
<path d="M159.065 148.062L162.871 130.187C162.871 130.187 160.029 128.608 160.029 124.433C160.029 124.433 159.671 128.46 161.585 131.372L158.312 146.315C158.541 146.898 158.795 147.485 159.065 148.062Z" fill="#37474F"/>
<path d="M171.835 150.119V149.083L170.04 150.189L166.731 155.06L166.42 158.884C167.722 160.409 169.081 161.89 170.434 163.292L170.704 157.024L173.194 150.835C172.776 150.541 172.319 150.3 171.835 150.119Z" fill="#37474F"/>
<path d="M158.771 197.568L157.018 196.62L158.771 194.409V197.568Z" fill="#37474F"/>
<path d="M161.321 193.328V196.126L158.77 197.567V194.409L161.321 193.328Z" fill="#455A64"/>
<path d="M155.783 187.396C155.783 187.396 154.788 187.011 153.838 190.303C152.889 193.594 148.958 195.731 147.962 196.304C146.966 196.876 144.331 199.265 147.962 200.499C151.593 201.732 156.214 199.916 157.298 197.839C158.382 195.761 158.937 194.497 161.317 193.328V189.128C161.317 188.319 160.425 187.731 159.86 187.593C159.295 187.455 155.783 187.396 155.783 187.396Z" fill="#263238"/>
<path d="M176.03 120.765L160.03 119.694V124.432C160.03 128.607 162.872 130.187 162.872 130.187L158.033 152.889C157.799 153.983 157.639 155.091 157.556 156.205L155.455 184.691C156.247 185.346 157.203 185.795 158.231 185.994C159.259 186.192 160.324 186.135 161.321 185.826C162.41 182.653 164.267 177.353 166.456 171.559C169.091 164.565 169.21 159.714 169.106 157.74C169.067 157.048 169.197 156.357 169.485 155.721C170.356 153.797 172.478 149.118 176.03 141.227C182.648 126.569 176.03 120.765 176.03 120.765Z" fill="#455A64"/>
<path d="M155.457 184.711L155.156 188.802C155.426 189.219 155.81 189.558 156.267 189.782C156.724 190.006 157.236 190.108 157.75 190.076C159.648 190.076 160.312 188.906 160.312 188.906C160.312 188.906 160.69 187.766 161.349 185.846C160.348 186.159 159.278 186.219 158.245 186.02C157.212 185.821 156.252 185.37 155.457 184.711Z" fill="#945959"/>
<path d="M161.622 98.8389C161.622 98.8389 157.151 99.0017 155.59 102.121C154.029 105.24 151.799 111.542 151.799 111.542L157.795 112.825L161.622 98.8389Z" fill="#35763B"/>
<path opacity="0.2" d="M161.622 98.8389C161.622 98.8389 157.151 99.0017 155.59 102.121C154.029 105.24 151.799 111.542 151.799 111.542L157.795 112.825L161.622 98.8389Z" fill="white"/>
<path d="M171.182 99.4791L176.031 100.279V110.643L174.517 116.15C174.517 116.15 174.802 119.111 176.031 120.75C176.031 120.75 167.401 126.978 157.634 120.75C157.634 120.75 158.013 115.321 158.013 113.801C158.013 113.801 154.704 111.906 155.031 109.019C155.357 106.132 161.623 98.8227 161.623 98.8227L165.067 98.7783L171.182 99.4791Z" fill="#35763B"/>
<path opacity="0.4" d="M171.182 99.4791L176.031 100.279V110.643L174.517 116.15C174.517 116.15 174.802 119.111 176.031 120.75C176.031 120.75 167.401 126.978 157.634 120.75C157.634 120.75 158.013 115.321 158.013 113.801C158.013 113.801 154.704 111.906 155.031 109.019C155.357 106.132 161.623 98.8227 161.623 98.8227L165.067 98.7783L171.182 99.4791Z" fill="white"/>
<path d="M162.847 78.2978C162.847 78.2978 158.656 76.9159 157.634 80.9973C156.613 85.0787 159.766 89.0368 155.041 90.3742C155.041 90.3742 157.826 92.5803 160.274 88.4643L162.349 96.8542C162.349 96.8542 162.349 97.3132 161.618 97.6636C161.618 97.6636 173.547 100.181 175.803 94.5297C176.12 94.8555 176.336 95.2584 176.428 95.6939C176.519 96.1294 176.483 96.5805 176.322 96.9973C176.322 96.9973 179.833 95.6451 178.848 91.3169C178.848 91.3169 181.622 91.2428 182.281 89.0911C182.281 89.0911 177.841 89.2934 177.867 84.6494C177.898 79.2601 174.916 80.0399 174.916 80.0399C174.916 80.0399 171.27 74.8727 162.847 78.2978Z" fill="#263238"/>
<path d="M165.068 95.1955V98.7933C165.068 98.7933 161.671 104.365 162.993 104.716C165.524 105.392 171.157 99.4694 171.157 99.4694V91.8691L165.068 95.1955Z" fill="#945959"/>
<path d="M171.113 90.6653V90.8775C169.748 95.9904 166.206 97.1058 165.065 97.3673L165.023 89.471L170.936 89.4463L171.113 90.6653Z" fill="#703838"/>
<path d="M165.45 79.2844C163.194 79.462 158.5 81.0314 158.428 86.6872C158.355 92.343 159.268 96.6712 162.354 96.8488C165.44 97.0265 172.338 94.3812 172.655 87.0277C172.971 79.6743 167.655 79.1018 165.45 79.2844Z" fill="#945959"/>
<path d="M162.598 88.9639L162.65 92.2902L160.596 91.7227L162.598 88.9639Z" fill="#703838"/>
<path d="M165.669 88.8746C165.653 89.0446 165.572 89.2029 165.439 89.3183C165.307 89.4337 165.135 89.4977 164.955 89.4977C164.776 89.4977 164.603 89.4337 164.471 89.3183C164.339 89.2029 164.257 89.0446 164.242 88.8746C164.241 88.6943 164.314 88.5208 164.446 88.3915C164.578 88.2622 164.758 88.1876 164.948 88.1837C165.043 88.1823 165.138 88.1993 165.226 88.2336C165.315 88.2679 165.395 88.3188 165.462 88.3833C165.53 88.4478 165.583 88.5246 165.618 88.609C165.653 88.6934 165.671 88.7837 165.669 88.8746Z" fill="#263238"/>
<path d="M160.98 88.4643C160.982 88.599 160.942 88.7312 160.865 88.8443C160.788 88.9574 160.678 89.0462 160.548 89.0995C160.418 89.1529 160.274 89.1683 160.135 89.144C159.996 89.1196 159.867 89.0565 159.766 88.9626C159.664 88.8688 159.594 88.7484 159.565 88.6167C159.535 88.485 159.547 88.3478 159.599 88.2227C159.652 88.0975 159.742 87.9899 159.858 87.9134C159.975 87.837 160.113 87.7951 160.254 87.7931C160.348 87.7912 160.442 87.807 160.53 87.8398C160.617 87.8726 160.697 87.9217 160.765 87.9841C160.832 88.0466 160.886 88.1212 160.923 88.2036C160.96 88.2861 160.98 88.3747 160.98 88.4643Z" fill="#263238"/>
<path d="M159.378 87.0725L160.757 86.2681C160.757 86.2681 160.239 85.745 159.689 86.0707C159.537 86.1882 159.425 86.3468 159.37 86.5257C159.314 86.7045 159.317 86.8952 159.378 87.0725Z" fill="#35763B"/>
<path d="M159.378 87.0725L160.757 86.2681C160.757 86.2681 160.239 85.745 159.689 86.0707C159.537 86.1882 159.425 86.3468 159.37 86.5257C159.314 86.7045 159.317 86.8952 159.378 87.0725Z" fill="#263238"/>
<path d="M169.175 88.5673C169.175 88.5673 169.035 90.9511 170.477 90.9511H173.304V86.4057C173.304 81.3076 169.243 75.9825 160.597 80.1923C160.597 80.1923 160.187 86.9979 169.175 88.5673Z" fill="#263238"/>
<path d="M170.466 90.671C170.453 90.1616 170.559 89.6557 170.777 89.1904C170.884 88.894 171.08 88.6339 171.341 88.4426C171.602 88.2513 171.916 88.1372 172.245 88.1146C173.931 88.0899 174.138 89.6346 174.112 90.1824C174.034 91.6235 172.795 93.1682 170.482 93.2028L170.466 90.671Z" fill="#945959"/>
<path d="M164.471 93.3409C164.471 93.4512 164.437 93.559 164.372 93.6507C164.308 93.7424 164.216 93.8139 164.109 93.8561C164.002 93.8983 163.884 93.9094 163.771 93.8879C163.657 93.8663 163.552 93.8132 163.47 93.7352C163.389 93.6572 163.333 93.5579 163.31 93.4497C163.287 93.3415 163.299 93.2294 163.343 93.1275C163.388 93.0256 163.463 92.9385 163.559 92.8772C163.656 92.8159 163.769 92.7832 163.885 92.7832C164.04 92.7832 164.189 92.842 164.299 92.9465C164.409 93.0511 164.471 93.193 164.471 93.3409Z" fill="#703838"/>
<path d="M176.031 100.278C176.031 100.278 172.047 101.655 173.79 108.288C175.533 114.921 177.208 120.473 177.208 120.473L170.273 124.421C170.273 124.421 172.794 125.571 172.229 129.801C172.229 129.801 181.295 127.669 183.396 126.218C185.496 124.767 184.78 120.528 184.282 118.193C183.785 115.859 181.44 106.383 181.082 105.095C180.724 103.807 179.666 100.88 176.031 100.278Z" fill="#35763B"/>
<path opacity="0.2" d="M176.031 100.278C176.031 100.278 172.047 101.655 173.79 108.288C175.533 114.921 177.208 120.473 177.208 120.473L170.273 124.421C170.273 124.421 172.794 125.571 172.229 129.801C172.229 129.801 181.295 127.669 183.396 126.218C185.496 124.767 184.78 120.528 184.282 118.193C183.785 115.859 181.44 106.383 181.082 105.095C180.724 103.807 179.666 100.88 176.031 100.278Z" fill="white"/>
<path d="M177.209 120.475C178.582 120.364 179.956 120.685 181.12 121.388C180.604 120.799 179.961 120.323 179.234 119.992C178.507 119.662 177.714 119.485 176.908 119.473L177.209 120.475Z" fill="#35763B"/>
<path d="M148.625 136.381L130.846 126.51C130.806 126.488 130.773 126.456 130.75 126.418C130.727 126.38 130.715 126.337 130.715 126.293C130.715 126.249 130.727 126.206 130.75 126.168C130.773 126.13 130.806 126.098 130.846 126.076L150.555 114.518L148.625 136.381Z" fill="#35763B"/>
<path opacity="0.4" d="M148.625 136.381L130.846 126.51C130.806 126.488 130.773 126.456 130.75 126.418C130.727 126.38 130.715 126.337 130.715 126.293C130.715 126.249 130.727 126.206 130.75 126.168C130.773 126.13 130.806 126.098 130.846 126.076L150.555 114.518L148.625 136.381Z" fill="black"/>
<path d="M148.625 136.381L168.448 125.459V120.494L148.625 131.371V136.381Z" fill="#35763B"/>
<path opacity="0.2" d="M148.625 136.381L168.448 125.459V120.494L148.625 131.371V136.381Z" fill="black"/>
<path d="M164.577 126.224L156.751 130.527C156.232 130.813 155.807 130.527 155.807 129.846C155.811 129.51 155.899 129.18 156.063 128.882C156.227 128.585 156.463 128.328 156.751 128.134L164.577 123.835C165.096 123.549 165.521 123.835 165.521 124.511C165.515 124.847 165.427 125.177 165.263 125.474C165.099 125.771 164.864 126.028 164.577 126.224Z" fill="#E6E6E6"/>
<path d="M154.658 130.478C154.637 130.838 154.528 131.188 154.338 131.5C154.149 131.812 153.885 132.078 153.568 132.275C152.967 132.605 152.484 132.334 152.484 131.678C152.504 131.318 152.612 130.968 152.801 130.656C152.989 130.344 153.252 130.079 153.568 129.881C154.17 129.551 154.658 129.817 154.658 130.478Z" fill="#E6E6E6"/>
<path d="M148.626 131.371L130.913 123.45C130.871 123.428 130.836 123.396 130.811 123.357C130.786 123.318 130.773 123.273 130.773 123.228C130.773 123.182 130.786 123.137 130.811 123.098C130.836 123.059 130.871 123.027 130.913 123.006L149.907 112.257C150.014 112.195 150.136 112.16 150.261 112.155C150.386 112.15 150.51 112.175 150.623 112.227L168.47 120.494L148.626 131.371Z" fill="#35763B"/>
<path d="M132.053 123.959V126.091L146.726 133.987V130.523L132.053 123.959Z" fill="#F5F5F5"/>
<path d="M146.727 133.987L148.625 132.862V131.371L146.727 130.522V133.987Z" fill="#E0E0E0"/>
<path d="M172.229 129.812C172.229 129.812 164.449 131.406 163.728 131.574C163.007 131.742 159.247 132.862 156.15 132.215L163.795 128.021C163.795 128.021 159.895 127.112 160.455 125.958C160.668 125.518 167.924 125.755 167.924 125.755L170.274 124.433C170.274 124.433 174.433 124.941 172.229 129.812Z" fill="#945959"/>
<path d="M130.762 121.397V115.895H163.085C163.199 115.895 166.669 117.612 168.204 118.362C168.273 118.399 168.33 118.453 168.37 118.518C168.41 118.583 168.432 118.657 168.432 118.732C168.432 118.808 168.41 118.882 168.37 118.947C168.33 119.012 168.273 119.066 168.204 119.102L149.05 129.407C148.915 129.48 148.764 129.521 148.609 129.525C148.455 129.529 148.301 129.497 148.163 129.432L130.762 121.397Z" fill="#35763B"/>
<path opacity="0.4" d="M130.762 121.397V115.895H163.085C163.199 115.895 166.669 117.612 168.204 118.362C168.273 118.399 168.33 118.453 168.37 118.518C168.41 118.583 168.432 118.657 168.432 118.732C168.432 118.808 168.41 118.882 168.37 118.947C168.33 119.012 168.273 119.066 168.204 119.102L149.05 129.407C148.915 129.48 148.764 129.521 148.609 129.525C148.455 129.529 148.301 129.497 148.163 129.432L130.762 121.397Z" fill="black"/>
<path d="M148.625 128.119L166.965 118.308V116.176L148.625 125.459V128.119Z" fill="#E0E0E0"/>
<path d="M130.762 121.397L135.554 118.727L130.762 115.895V121.397Z" fill="#35763B"/>
<path opacity="0.6" d="M130.762 121.397L135.554 118.727L130.762 115.895V121.397Z" fill="black"/>
<path d="M133.791 117.681V120.721L148.625 128.119V125.459L133.791 117.681Z" fill="#F5F5F5"/>
<path d="M130.762 115.894L148.007 125.676C148.195 125.784 148.408 125.844 148.627 125.85C148.846 125.856 149.063 125.808 149.257 125.711L168.271 116.235C168.338 116.2 168.394 116.149 168.434 116.087C168.474 116.025 168.497 115.954 168.499 115.882C168.502 115.809 168.485 115.737 168.449 115.673C168.414 115.608 168.361 115.554 168.297 115.514L150.948 104.785L130.762 115.894Z" fill="#35763B"/>
<path d="M148.625 123.964L130.846 114.093C130.806 114.071 130.773 114.039 130.75 114.001C130.727 113.963 130.715 113.92 130.715 113.876C130.715 113.832 130.727 113.789 130.75 113.751C130.773 113.713 130.806 113.681 130.846 113.659L150.555 102.101L148.625 123.964Z" fill="#35763B"/>
<path opacity="0.4" d="M148.625 123.964L130.846 114.093C130.806 114.071 130.773 114.039 130.75 114.001C130.727 113.963 130.715 113.92 130.715 113.876C130.715 113.832 130.727 113.789 130.75 113.751C130.773 113.713 130.806 113.681 130.846 113.659L150.555 102.101L148.625 123.964Z" fill="black"/>
<path d="M148.625 123.959L168.448 113.042V108.077L148.625 118.954V123.959Z" fill="#35763B"/>
<path opacity="0.2" d="M148.625 123.959L168.448 113.042V108.077L148.625 118.954V123.959Z" fill="black"/>
<path d="M164.577 113.832L156.751 118.13C156.232 118.417 155.807 118.13 155.807 117.454C155.811 117.118 155.899 116.788 156.063 116.491C156.227 116.193 156.463 115.937 156.751 115.742L164.577 111.438C165.096 111.157 165.521 111.438 165.521 112.119C165.515 112.455 165.427 112.785 165.263 113.082C165.099 113.38 164.864 113.636 164.577 113.832Z" fill="#E6E6E6"/>
<path d="M154.658 118.061C154.638 118.421 154.529 118.77 154.339 119.082C154.15 119.393 153.886 119.657 153.568 119.853C152.967 120.184 152.484 119.917 152.484 119.256C152.504 118.897 152.613 118.548 152.801 118.237C152.99 117.925 153.252 117.661 153.568 117.464C154.17 117.134 154.658 117.4 154.658 118.061Z" fill="#E6E6E6"/>
<path d="M148.625 118.955L130.913 111.058C130.87 111.036 130.835 111.004 130.811 110.964C130.786 110.925 130.773 110.88 130.773 110.834C130.773 110.788 130.786 110.743 130.811 110.703C130.835 110.664 130.87 110.631 130.913 110.609L149.906 99.8603C150.016 99.8033 150.139 99.7734 150.264 99.7734C150.389 99.7734 150.512 99.8033 150.622 99.8603L168.469 108.127L148.625 118.955Z" fill="#35763B"/>
<path d="M132.053 111.541V113.673L146.726 121.569V118.105L132.053 111.541Z" fill="#F5F5F5"/>
<path d="M146.727 121.57L148.625 120.44V118.954L146.727 118.105V121.57Z" fill="#E0E0E0"/>
</g>
</svg>
