<svg width="74" height="74" viewBox="0 0 74 74" fill="none" xmlns="http://www.w3.org/2000/svg">
<rect width="74" height="74" rx="37" fill="#35763B" fill-opacity="0.1"/>
<path d="M18.5 50.875C18.5 48.4217 19.4746 46.069 21.2093 44.3343C22.944 42.5996 25.2967 41.625 27.75 41.625H46.25C48.7033 41.625 51.056 42.5996 52.7907 44.3343C54.5254 46.069 55.5 48.4217 55.5 50.875C55.5 52.1016 55.0127 53.278 54.1454 54.1454C53.278 55.0127 52.1016 55.5 50.875 55.5H23.125C21.8984 55.5 20.722 55.0127 19.8546 54.1454C18.9873 53.278 18.5 52.1016 18.5 50.875Z" stroke="#35763B" stroke-width="4.625" stroke-linejoin="round"/>
<path d="M18.5 50.875C18.5 48.4217 19.4746 46.069 21.2093 44.3343C22.944 42.5996 25.2967 41.625 27.75 41.625H46.25C48.7033 41.625 51.056 42.5996 52.7907 44.3343C54.5254 46.069 55.5 48.4217 55.5 50.875C55.5 52.1016 55.0127 53.278 54.1454 54.1454C53.278 55.0127 52.1016 55.5 50.875 55.5H23.125C21.8984 55.5 20.722 55.0127 19.8546 54.1454C18.9873 53.278 18.5 52.1016 18.5 50.875Z" stroke="black" stroke-opacity="0.2" stroke-width="4.625" stroke-linejoin="round"/>
<path d="M37 32.375C40.8315 32.375 43.9375 29.269 43.9375 25.4375C43.9375 21.606 40.8315 18.5 37 18.5C33.1685 18.5 30.0625 21.606 30.0625 25.4375C30.0625 29.269 33.1685 32.375 37 32.375Z" stroke="#35763B" stroke-width="4.625"/>
<path d="M37 32.375C40.8315 32.375 43.9375 29.269 43.9375 25.4375C43.9375 21.606 40.8315 18.5 37 18.5C33.1685 18.5 30.0625 21.606 30.0625 25.4375C30.0625 29.269 33.1685 32.375 37 32.375Z" stroke="black" stroke-opacity="0.2" stroke-width="4.625"/>
</svg>
