<svg width="72" height="73" viewBox="0 0 72 73" fill="none" xmlns="http://www.w3.org/2000/svg">
<g filter="url(#filter0_d_3173_31461)">
<rect x="4" y="0.142822" width="64" height="64" rx="5" fill="#CCCCCC"/>
<path d="M51.7488 29.1553L49.3881 19.2999C48.9744 17.5806 47.232 16.5006 45.503 16.9249C43.9824 17.2964 43.2432 18.3495 42.9437 19.0906C42.5894 19.9652 41.0083 23.9281 40.6387 24.747C40.5091 25.0311 40.2355 25.1809 40.1798 25.2058C39.8659 25.345 36.7238 26.6708 36.7238 26.6708V26.6766C36.4112 26.8207 36.1463 27.0511 35.9602 27.3408C35.7741 27.6304 35.6747 27.9672 35.6736 28.3114C35.6736 29.3127 36.4934 30.1249 37.5043 30.1249C37.7222 30.1249 37.9296 30.0798 38.1245 30.0106V30.0174L42.2957 28.2836C42.8678 28.0167 43.1472 27.6788 43.4313 27.1863C43.5504 26.979 43.9123 26.1111 44.207 25.3988L46.7241 35.9252L46.7213 52.2356C46.7165 53.8561 47.8358 55.177 49.4717 55.1828C51.1094 55.1885 52.2931 53.8801 52.3037 52.2567L52.32 33.0058C52.3181 32.1006 51.9581 29.9492 51.7488 29.1553Z" fill="white"/>
<path d="M42.6232 16.4372C44.6671 16.4372 46.324 14.7953 46.324 12.77C46.324 10.7446 44.6671 9.10278 42.6232 9.10278C40.5793 9.10278 38.9224 10.7446 38.9224 12.77C38.9224 14.7953 40.5793 16.4372 42.6232 16.4372Z" fill="white"/>
<path d="M28.4457 43.7606V47.8694C28.9516 47.7864 29.4118 47.5269 29.7446 47.137C30.0767 46.7462 30.2428 46.2893 30.2428 45.7632C30.2428 45.2928 30.1036 44.8867 29.8252 44.545C29.543 44.207 29.0831 43.9459 28.4457 43.7606ZM25.9075 37.3795C25.6579 37.7155 25.5321 38.088 25.5321 38.495C25.5321 38.8694 25.6463 39.2131 25.8719 39.5318C26.1004 39.8525 26.4451 40.1117 26.903 40.3075V36.6624C26.5034 36.7896 26.1547 37.0408 25.9075 37.3795ZM35.6707 32.4989H35.6745L29.9385 20.9914L29.9375 21.0019C29.7232 20.5594 29.3883 20.1863 28.9714 19.9256C28.5545 19.6649 28.0724 19.5272 27.5807 19.5283H22.294C20.8511 19.5274 19.6799 20.687 19.6799 22.1174V55.1827H35.9673V33.7968C35.9659 33.3475 35.8645 32.9042 35.6707 32.4989ZM31.6847 48.5971C30.9071 49.4678 29.8281 50.0016 28.4486 50.1974V52.1683H26.9059V50.2502C25.679 50.1034 24.6854 49.6493 23.9174 48.8918C23.1532 48.1325 22.6646 47.0621 22.4524 45.6787L25.2268 45.3821C25.3239 45.9104 25.5424 46.409 25.8652 46.8384C26.1753 47.2454 26.5228 47.5402 26.9049 47.7226V43.3085C25.5167 42.9149 24.4963 42.3187 23.8502 41.5248C23.2003 40.728 22.8758 39.7613 22.8758 38.6227C22.8758 37.4707 23.2415 36.503 23.9779 35.7187C24.7113 34.9363 25.6867 34.4842 26.9059 34.3661V33.3226H28.4486V34.3661C29.5737 34.4986 30.4713 34.8797 31.1375 35.5075C31.8019 36.1344 32.2271 36.9782 32.4124 38.0314L29.7235 38.3789C29.5593 37.5514 29.135 36.9878 28.4486 36.6931V40.8115C30.1487 41.2694 31.3075 41.8608 31.9247 42.5866C32.5401 43.3142 32.8492 44.2464 32.8492 45.384C32.8492 46.655 32.4614 47.7254 31.6847 48.5971Z" fill="white"/>
</g>
<defs>
<filter id="filter0_d_3173_31461" x="0" y="0.142822" width="72" height="72" filterUnits="userSpaceOnUse" color-interpolation-filters="sRGB">
<feFlood flood-opacity="0" result="BackgroundImageFix"/>
<feColorMatrix in="SourceAlpha" type="matrix" values="0 0 0 0 0 0 0 0 0 0 0 0 0 0 0 0 0 0 127 0" result="hardAlpha"/>
<feOffset dy="4"/>
<feGaussianBlur stdDeviation="2"/>
<feComposite in2="hardAlpha" operator="out"/>
<feColorMatrix type="matrix" values="0 0 0 0 0 0 0 0 0 0 0 0 0 0 0 0 0 0 0.25 0"/>
<feBlend mode="normal" in2="BackgroundImageFix" result="effect1_dropShadow_3173_31461"/>
<feBlend mode="normal" in="SourceGraphic" in2="effect1_dropShadow_3173_31461" result="shape"/>
</filter>
</defs>
</svg>
