<svg width="16" height="16" viewBox="0 0 16 16" fill="none" xmlns="http://www.w3.org/2000/svg">
<g clip-path="url(#clip0_24064_8713)">
<path d="M1.90634 1.91782L10.2863 0.721151C10.3336 0.714367 10.3818 0.717828 10.4277 0.731301C10.4735 0.744774 10.5159 0.767944 10.552 0.79924C10.5881 0.830535 10.6171 0.869226 10.6369 0.91269C10.6568 0.956153 10.667 1.00337 10.667 1.05115V14.9485C10.667 14.9962 10.6568 15.0434 10.637 15.0868C10.6172 15.1302 10.5883 15.1688 10.5522 15.2001C10.5162 15.2314 10.4739 15.2546 10.4281 15.2681C10.3824 15.2816 10.3343 15.2852 10.287 15.2785L1.90567 14.0818C1.74675 14.0592 1.60134 13.98 1.49613 13.8587C1.39093 13.7375 1.33301 13.5823 1.33301 13.4218V2.57782C1.33301 2.41729 1.39093 2.26216 1.49613 2.14091C1.60134 2.01967 1.74675 1.94045 1.90567 1.91782H1.90634ZM2.66701 3.15648V12.8432L9.33367 13.7958V2.20382L2.66701 3.15648ZM11.3337 12.6665H13.3337V3.33315H11.3337V1.99982H14.0003C14.1772 1.99982 14.3467 2.07006 14.4717 2.19508C14.5968 2.3201 14.667 2.48967 14.667 2.66648V13.3332C14.667 13.51 14.5968 13.6795 14.4717 13.8046C14.3467 13.9296 14.1772 13.9998 14.0003 13.9998H11.3337V12.6665ZM6.80034 7.99982L8.66701 10.6665H7.06701L6.00034 9.14248L4.93367 10.6665H3.33367L5.20034 7.99982L3.33367 5.33315H4.93367L6.00034 6.85715L7.06701 5.33315H8.66701L6.80034 7.99982Z" fill="#4D4D4D"/>
</g>
<defs>
<clipPath id="clip0_24064_8713">
<rect width="16" height="16" fill="white"/>
</clipPath>
</defs>
</svg>
