<svg width="72" height="72" viewBox="0 0 72 72" fill="none" xmlns="http://www.w3.org/2000/svg">
<path opacity="0.2" d="M9 42.75V18C9 16.8065 9.47411 15.6619 10.318 14.818C11.1619 13.9741 12.3065 13.5 13.5 13.5H58.5C59.6935 13.5 60.8381 13.9741 61.682 14.818C62.5259 15.6619 63 16.8065 63 18V42.75H9Z" fill="#7D62AF"/>
<path d="M58.5 11.25H13.5C11.7121 11.2574 9.99948 11.9709 8.73521 13.2352C7.47094 14.4995 6.7574 16.2121 6.75 18V49.5C6.7574 51.2879 7.47094 53.0005 8.73521 54.2648C9.99948 55.5291 11.7121 56.2426 13.5 56.25H33.75V60.75H27C26.4033 60.75 25.831 60.9871 25.409 61.409C24.9871 61.831 24.75 62.4033 24.75 63C24.75 63.5967 24.9871 64.169 25.409 64.591C25.831 65.0129 26.4033 65.25 27 65.25H45C45.5967 65.25 46.169 65.0129 46.591 64.591C47.0129 64.169 47.25 63.5967 47.25 63C47.25 62.4033 47.0129 61.831 46.591 61.409C46.169 60.9871 45.5967 60.75 45 60.75H38.25V56.25H58.5C60.2879 56.2426 62.0005 55.5291 63.2648 54.2648C64.5291 53.0005 65.2426 51.2879 65.25 49.5V18C65.2426 16.2121 64.5291 14.4995 63.2648 13.2352C62.0005 11.9709 60.2879 11.2574 58.5 11.25ZM13.5 15.75H58.5C59.0967 15.75 59.669 15.9871 60.091 16.409C60.5129 16.831 60.75 17.4033 60.75 18V40.5H11.25V18C11.25 17.4033 11.4871 16.831 11.909 16.409C12.331 15.9871 12.9033 15.75 13.5 15.75ZM58.5 51.75H13.5C12.9033 51.75 12.331 51.5129 11.909 51.091C11.4871 50.669 11.25 50.0967 11.25 49.5V45H60.75V49.5C60.75 50.0967 60.5129 50.669 60.091 51.091C59.669 51.5129 59.0967 51.75 58.5 51.75Z" fill="#7D62AF"/>
</svg>
