<svg width="72" height="72" viewBox="0 0 72 72" fill="none" xmlns="http://www.w3.org/2000/svg">
<path opacity="0.2" d="M63 15.75V56.25C63 56.8467 62.7629 57.419 62.341 57.841C61.919 58.2629 61.3467 58.5 60.75 58.5H11.25C10.6533 58.5 10.081 58.2629 9.65901 57.841C9.23705 57.419 9 56.8467 9 56.25V15.75C9 15.1533 9.23705 14.581 9.65901 14.159C10.081 13.7371 10.6533 13.5 11.25 13.5H60.75C61.3467 13.5 61.919 13.7371 62.341 14.159C62.7629 14.581 63 15.1533 63 15.75Z" fill="#7D62AF"/>
<path d="M60.75 11.25H11.25C10.0565 11.25 8.91193 11.7241 8.06802 12.568C7.22411 13.4119 6.75 14.5565 6.75 15.75V56.25C6.75 57.4435 7.22411 58.5881 8.06802 59.432C8.91193 60.2759 10.0565 60.75 11.25 60.75H60.75C61.9435 60.75 63.0881 60.2759 63.932 59.432C64.7759 58.5881 65.25 57.4435 65.25 56.25V15.75C65.25 14.5565 64.7759 13.4119 63.932 12.568C63.0881 11.7241 61.9435 11.25 60.75 11.25ZM60.75 56.25H11.25V15.75H60.75V56.25ZM22.5 23.625C22.5 24.2925 22.3021 24.945 21.9312 25.5C21.5604 26.0551 21.0333 26.4876 20.4166 26.7431C19.7999 26.9985 19.1213 27.0654 18.4666 26.9352C17.8119 26.8049 17.2105 26.4835 16.7385 26.0115C16.2665 25.5395 15.9451 24.9381 15.8148 24.2834C15.6846 23.6287 15.7515 22.9501 16.0069 22.3334C16.2624 21.7167 16.6949 21.1896 17.25 20.8188C17.805 20.4479 18.4575 20.25 19.125 20.25C20.0201 20.25 20.8786 20.6056 21.5115 21.2385C22.1444 21.8714 22.5 22.7299 22.5 23.625ZM33.75 23.625C33.75 24.2925 33.5521 24.945 33.1812 25.5C32.8104 26.0551 32.2833 26.4876 31.6666 26.7431C31.0499 26.9985 30.3713 27.0654 29.7166 26.9352C29.0619 26.8049 28.4605 26.4835 27.9885 26.0115C27.5165 25.5395 27.1951 24.9381 27.0648 24.2834C26.9346 23.6287 27.0015 22.9501 27.2569 22.3334C27.5124 21.7167 27.9449 21.1896 28.5 20.8188C29.055 20.4479 29.7075 20.25 30.375 20.25C31.2701 20.25 32.1286 20.6056 32.7615 21.2385C33.3944 21.8714 33.75 22.7299 33.75 23.625Z" fill="#7D62AF"/>
</svg>
