<svg width="72" height="72" viewBox="0 0 72 72" fill="none" xmlns="http://www.w3.org/2000/svg">
<path opacity="0.2" d="M31.5 47.25C31.5 49.03 30.9722 50.7701 29.9832 52.2501C28.9943 53.7302 27.5887 54.8837 25.9442 55.5649C24.2996 56.2461 22.49 56.4243 20.7442 56.0771C18.9984 55.7298 17.3947 54.8726 16.136 53.614C14.8774 52.3553 14.0202 50.7516 13.6729 49.0058C13.3257 47.26 13.5039 45.4504 14.1851 43.8059C14.8663 42.1613 16.0198 40.7557 17.4999 39.7668C18.9799 38.7778 20.72 38.25 22.5 38.25C24.887 38.25 27.1761 39.1982 28.864 40.886C30.5518 42.5739 31.5 44.8631 31.5 47.25ZM22.5 9C20.72 9 18.9799 9.52784 17.4999 10.5168C16.0198 11.5057 14.8663 12.9113 14.1851 14.5559C13.5039 16.2004 13.3257 18.01 13.6729 19.7558C14.0202 21.5016 14.8774 23.1053 16.136 24.364C17.3947 25.6226 18.9984 26.4798 20.7442 26.8271C22.49 27.1743 24.2996 26.9961 25.9442 26.3149C27.5887 25.6337 28.9943 24.4802 29.9832 23.0001C30.9722 21.5201 31.5 19.78 31.5 18C31.5 15.6131 30.5518 13.3239 28.864 11.636C27.1761 9.94821 24.887 9 22.5 9ZM49.5 38.25C47.72 38.25 45.9799 38.7778 44.4999 39.7668C43.0198 40.7557 41.8663 42.1613 41.1851 43.8059C40.5039 45.4504 40.3257 47.26 40.6729 49.0058C41.0202 50.7516 41.8774 52.3553 43.136 53.614C44.3947 54.8726 45.9984 55.7298 47.7442 56.0771C49.49 56.4243 51.2996 56.2461 52.9442 55.5649C54.5887 54.8837 55.9943 53.7302 56.9832 52.2501C57.9722 50.7701 58.5 49.03 58.5 47.25C58.5 44.8631 57.5518 42.5739 55.864 40.886C54.1761 39.1982 51.887 38.25 49.5 38.25ZM49.5 27C51.28 27 53.0201 26.4722 54.5001 25.4832C55.9802 24.4943 57.1337 23.0887 57.8149 21.4442C58.4961 19.7996 58.6743 17.99 58.3271 16.2442C57.9798 14.4984 57.1226 12.8947 55.864 11.636C54.6053 10.3774 53.0016 9.5202 51.2558 9.17294C49.51 8.82567 47.7004 9.0039 46.0559 9.68509C44.4113 10.3663 43.0057 11.5198 42.0168 12.9999C41.0278 14.4799 40.5 16.22 40.5 18C40.5 20.387 41.4482 22.6761 43.136 24.364C44.8239 26.0518 47.1131 27 49.5 27Z" fill="#7D62AF"/>
<path d="M7.65001 35.55C8.03647 35.8478 8.51217 36.0063 9.00001 36C9.34931 36 9.69382 35.9186 10.0062 35.7624C10.3187 35.6062 10.5904 35.3794 10.8 35.1C12.1606 33.2873 13.9239 31.8157 15.9508 30.8013C17.9776 29.7868 20.2124 29.2574 22.4789 29.2546C24.7454 29.2519 26.9816 29.776 29.0108 30.7855C31.0401 31.7951 32.8069 33.2625 34.1719 35.0718L34.3406 35.2687H34.3688C34.3969 35.325 34.4531 35.3531 34.5094 35.4093H34.5656L34.65 35.4937H34.6781C34.7557 35.5595 34.8407 35.6162 34.9313 35.6625L35.0156 35.7187L35.2688 35.8312H35.3531L35.5781 35.8875H36.5063L36.9844 35.7187H37.0406L37.1813 35.6343L37.2656 35.5781L37.35 35.5219C37.3575 35.5218 37.3646 35.5189 37.3699 35.5136C37.3752 35.5083 37.3781 35.5012 37.3781 35.4937L37.4625 35.4375L37.6031 35.2968H37.6313L37.8 35.1281C39.1623 33.3117 40.9287 31.8375 42.9595 30.8221C44.9903 29.8067 47.2295 29.2781 49.5 29.2781C51.7705 29.2781 54.0097 29.8067 56.0405 30.8221C58.0713 31.8375 59.8377 33.3117 61.2 35.1281C61.5625 35.5993 62.0949 35.9101 62.6834 35.9942C63.272 36.0783 63.8701 35.9289 64.35 35.5781C64.5864 35.4008 64.7855 35.1787 64.9361 34.9245C65.0866 34.6702 65.1856 34.3888 65.2274 34.0963C65.2692 33.8038 65.2529 33.5059 65.1796 33.2197C65.1063 32.9335 64.9773 32.6645 64.8 32.4281C62.8124 29.7449 60.155 27.6306 57.0938 26.2968C58.7669 24.7662 59.9383 22.7657 60.4546 20.5576C60.9708 18.3495 60.8078 16.0369 59.9867 13.9232C59.1657 11.8094 57.725 9.99306 55.8537 8.71237C53.9823 7.43168 51.7676 6.7464 49.5 6.7464C47.2324 6.7464 45.0177 7.43168 43.1463 8.71237C41.275 9.99306 39.8343 11.8094 39.0133 13.9232C38.1923 16.0369 38.0292 18.3495 38.5454 20.5576C39.0617 22.7657 40.2332 24.7662 41.9063 26.2968C39.7026 27.2551 37.699 28.6195 36 30.3187C34.301 28.6195 32.2974 27.2551 30.0938 26.2968C31.7669 24.7662 32.9383 22.7657 33.4546 20.5576C33.9708 18.3495 33.8078 16.0369 32.9867 13.9232C32.1657 11.8094 30.725 9.99306 28.8537 8.71237C26.9823 7.43168 24.7676 6.7464 22.5 6.7464C20.2324 6.7464 18.0177 7.43168 16.1463 8.71237C14.275 9.99306 12.8343 11.8094 12.0133 13.9232C11.1923 16.0369 11.0292 18.3495 11.5454 20.5576C12.0617 22.7657 13.2332 24.7662 14.9063 26.2968C11.8483 27.6228 9.19122 29.7271 7.20001 32.4C7.02272 32.6364 6.89373 32.9053 6.8204 33.1916C6.74707 33.4778 6.73084 33.7757 6.77262 34.0682C6.81441 34.3607 6.9134 34.6421 7.06394 34.8963C7.21448 35.1506 7.41363 35.3727 7.65001 35.55ZM42.75 18C42.75 16.6649 43.1459 15.3599 43.8876 14.2499C44.6293 13.1398 45.6835 12.2747 46.9169 11.7638C48.1503 11.2529 49.5075 11.1192 50.8169 11.3797C52.1262 11.6401 53.329 12.283 54.273 13.227C55.217 14.171 55.8599 15.3737 56.1203 16.6831C56.3808 17.9925 56.2471 19.3497 55.7362 20.5831C55.2253 21.8165 54.3601 22.8707 53.2501 23.6124C52.1401 24.3541 50.835 24.75 49.5 24.75C47.7121 24.7426 45.9995 24.029 44.7352 22.7648C43.4709 21.5005 42.7574 19.7879 42.75 18ZM15.75 18C15.75 16.6649 16.1459 15.3599 16.8876 14.2499C17.6293 13.1398 18.6835 12.2747 19.9169 11.7638C21.1503 11.2529 22.5075 11.1192 23.8169 11.3797C25.1262 11.6401 26.329 12.283 27.273 13.227C28.217 14.171 28.8599 15.3737 29.1203 16.6831C29.3808 17.9925 29.2471 19.3497 28.7362 20.5831C28.2253 21.8165 27.3601 22.8707 26.2501 23.6124C25.1401 24.3541 23.835 24.75 22.5 24.75C20.7121 24.7426 18.9995 24.029 17.7352 22.7648C16.4709 21.5005 15.7574 19.7879 15.75 18ZM57.0938 55.5468C58.7669 54.0162 59.9383 52.0157 60.4546 49.8076C60.9708 47.5995 60.8078 45.2869 59.9867 43.1732C59.1657 41.0594 57.725 39.2431 55.8537 37.9624C53.9823 36.6817 51.7676 35.9964 49.5 35.9964C47.2324 35.9964 45.0177 36.6817 43.1463 37.9624C41.275 39.2431 39.8343 41.0594 39.0133 43.1732C38.1923 45.2869 38.0292 47.5995 38.5454 49.8076C39.0617 52.0157 40.2332 54.0162 41.9063 55.5468C39.7026 56.5051 37.699 57.8695 36 59.5687C34.301 57.8695 32.2974 56.5051 30.0938 55.5468C31.7669 54.0162 32.9383 52.0157 33.4546 49.8076C33.9708 47.5995 33.8078 45.2869 32.9867 43.1732C32.1657 41.0594 30.725 39.2431 28.8537 37.9624C26.9823 36.6817 24.7676 35.9964 22.5 35.9964C20.2324 35.9964 18.0177 36.6817 16.1463 37.9624C14.275 39.2431 12.8343 41.0594 12.0133 43.1732C11.1923 45.2869 11.0292 47.5995 11.5454 49.8076C12.0617 52.0157 13.2332 54.0162 14.9063 55.5468C11.8483 56.8728 9.19122 58.9771 7.20001 61.65C6.84197 62.1274 6.68823 62.7274 6.77262 63.3182C6.85701 63.9089 7.17262 64.4419 7.65001 64.8C8.03647 65.0978 8.51217 65.2563 9.00001 65.25C9.34931 65.25 9.69382 65.1686 10.0062 65.0124C10.3187 64.8562 10.5904 64.6294 10.8 64.35C12.1606 62.5373 13.9239 61.0657 15.9508 60.0513C17.9776 59.0368 20.2124 58.5073 22.4789 58.5046C24.7454 58.5019 26.9816 59.026 29.0108 60.0355C31.0401 61.0451 32.8069 62.5125 34.1719 64.3218L34.3406 64.5187H34.3688L34.5094 64.6593H34.5656L34.65 64.7437H34.6781L34.9313 64.9125L35.0156 64.9687L35.2688 65.0812H35.3531L35.5781 65.1375H36.5344L36.7313 65.0531H36.7594L36.9844 64.9687H37.0406L37.1813 64.8843L37.2656 64.8281L37.35 64.7719H37.3781L37.4625 64.7156L37.6031 64.575H37.6313L37.8 64.4062C39.1623 62.5899 40.9287 61.1156 42.9595 60.1002C44.9903 59.0848 47.2295 58.5562 49.5 58.5562C51.7705 58.5562 54.0097 59.0848 56.0405 60.1002C58.0713 61.1156 59.8377 62.5899 61.2 64.4062C61.5625 64.8774 62.0949 65.1882 62.6834 65.2723C63.272 65.3564 63.8701 65.2071 64.35 64.8562C64.5864 64.6789 64.7855 64.4568 64.9361 64.2026C65.0866 63.9483 65.1856 63.6669 65.2274 63.3744C65.2692 63.0819 65.2529 62.784 65.1796 62.4978C65.1063 62.2116 64.9773 61.9426 64.8 61.7062C62.816 59.0127 60.1583 56.8884 57.0938 55.5468ZM15.75 47.25C15.75 45.915 16.1459 44.6099 16.8876 43.4999C17.6293 42.3898 18.6835 41.5247 19.9169 41.0138C21.1503 40.5029 22.5075 40.3692 23.8169 40.6297C25.1262 40.8901 26.329 41.533 27.273 42.477C28.217 43.421 28.8599 44.6237 29.1203 45.9331C29.3808 47.2425 29.2471 48.5997 28.7362 49.8331C28.2253 51.0665 27.3601 52.1207 26.2501 52.8624C25.1401 53.6041 23.835 54 22.5 54C20.7121 53.9926 18.9995 53.279 17.7352 52.0148C16.4709 50.7505 15.7574 49.0379 15.75 47.25ZM42.75 47.25C42.75 45.915 43.1459 44.6099 43.8876 43.4999C44.6293 42.3898 45.6835 41.5247 46.9169 41.0138C48.1503 40.5029 49.5075 40.3692 50.8169 40.6297C52.1262 40.8901 53.329 41.533 54.273 42.477C55.217 43.421 55.8599 44.6237 56.1203 45.9331C56.3808 47.2425 56.2471 48.5997 55.7362 49.8331C55.2253 51.0665 54.3601 52.1207 53.2501 52.8624C52.1401 53.6041 50.835 54 49.5 54C47.7121 53.9926 45.9995 53.279 44.7352 52.0148C43.4709 50.7505 42.7574 49.0379 42.75 47.25Z" fill="#7D62AF"/>
</svg>
